<?xml version="1.0" encoding="UTF-8" standalone="no"?>
<!-- Created with Inkscape (http://www.inkscape.org/) -->

<svg
   width="5.2285924mm"
   height="6.5370779mm"
   viewBox="0 0 5.2285923 6.537078"
   version="1.1"
   id="svg1"
   xml:space="preserve"
   xmlns="http://www.w3.org/2000/svg"
   xmlns:svg="http://www.w3.org/2000/svg"><defs
     id="defs1" /><path
     style="fill:#ff7f2a;fill-opacity:1;stroke-width:0.0484711"
     d="M 1.9404565,6.51496 C 1.1382283,6.5910075 1.0179289,6.4801528 0.59431527,6.0383727 0.49123052,5.9308659 0.30544355,5.7897964 0.26320034,5.7022338 0.1671387,5.5031158 0.19222303,5.3738403 0.37649497,5.1184437 0.48000327,4.9749774 0.51067588,4.904804 0.51082976,4.8111068 0.51101555,4.6942163 0.46760384,4.6199124 0.30197621,4.4537848 0.22570663,4.3772785 0.14308752,4.2842427 0.11840067,4.2470634 -0.01679666,4.0434387 -0.03908904,3.7365498 0.06803405,3.5537475 c 0.0437997,-0.07473 0.148012,-0.1718374 0.24102257,-0.2245701 0.0534545,-0.030301 0.0881733,-0.060385 0.104511,-0.090541 C 0.46177531,3.1496066 0.4170329,3.0869572 0.2063817,2.9484337 0.02914976,2.8318939 -0.00926629,2.7835147 0.00172688,2.6907082 0.02159133,2.5229066 0.22180956,2.2395852 0.32051065,2.2395852 c 0.0201192,0 0.023726,0.010456 0.023726,0.068473 0,0.089166 0.0415773,0.2500531 0.0854955,0.3307215 0.0718428,0.1320086 0.19088822,0.1986964 0.29167233,0.1634007 C 0.80603505,2.7725339 0.8252682,2.7325966 0.824535,2.5880643 0.82376449,2.4280772 0.79812212,2.3617327 0.65667416,2.1532426 0.5086758,1.935089 0.49323429,1.9026304 0.4924064,1.8078948 0.49149925,1.6906582 0.5252858,1.6507539 0.78027345,1.4689953 1.1466877,1.2078134 1.237761,1.0969697 1.2268416,0.92549392 1.2207394,0.83017732 1.1739248,0.72766462 1.0419727,0.52107432 0.93036573,0.34632162 0.88289278,0.24516312 0.88288095,0.18206562 c -1.458e-5,-0.071506 0.0434807,-0.1548102 0.091168,-0.1745597 0.0503849,-0.020866 0.087181,-0.00237 0.21531375,0.1084921 0.1239099,0.1071832 0.2490512,0.1776154 0.4217559,0.2374031 0.150581,0.052134 0.2218328,0.094601 0.3062629,0.1825536 0.1242646,0.1294466 0.1566692,0.2931206 0.087081,0.439791 -0.031222,0.065786 -0.099424,0.13897338 -0.1967266,0.21111318 -0.094855,0.070322 -0.1341792,0.1149559 -0.1817136,0.2062907 -0.04263,0.081926 -0.04347,0.2360259 -0.00172,0.327029 0.032002,0.069821 0.1041771,0.1518575 0.1589302,0.180602 0.150484,0.079001 0.3986117,-0.1128375 0.3994712,-0.308849 1.535e-4,-0.035257 -0.00437,-0.093944 -0.010241,-0.1303765 -0.00971,-0.061141 -0.00781,-0.068819 0.022687,-0.099391 0.043668,-0.043654 0.088729,-0.042342 0.1842345,0.00537 0.1738532,0.08688 0.3512103,0.2831756 0.3941634,0.4362644 0.029798,0.1062224 0.025115,0.1785498 -0.020191,0.3117971 -0.048745,0.1432942 -0.044654,0.1919612 0.021684,0.258292 0.073843,0.073856 0.2457028,0.1070858 0.3431535,0.066369 0.057031,-0.023817 0.1204073,-0.099661 0.1380519,-0.165184 0.00858,-0.031413 0.012506,-0.1091123 0.0095,-0.1829198 C 3.2612071,1.9775927 3.253213,1.9425793 3.1920045,1.7656197 3.1107849,1.530805 3.1009715,1.4321604 3.1508329,1.3514892 c 0.059759,-0.096679 0.136025,-0.1206073 0.4332842,-0.135904 0.1673035,-0.00874 0.2148593,-0.015337 0.2487384,-0.035174 0.067873,-0.039756 0.092159,-0.083364 0.1011698,-0.18170298 0.010241,-0.11171 0.0375,-0.157048 0.094394,-0.1569815 0.1009752,1.165e-4 0.1878748,0.1177493 0.1986917,0.26895358 0.010893,0.1531025 -0.04287,0.2800343 -0.22042,0.5197126 -0.1389362,0.1875602 -0.1571813,0.2190325 -0.1811028,0.3124074 -0.041523,0.1620645 0.00755,0.272513 0.2661282,0.5982178 0.3610735,0.4549256 0.4300754,0.5959619 0.4444392,0.9084011 0.00789,0.1741608 0.00883,0.1780525 0.044148,0.2083991 0.044079,0.037898 0.1086656,0.04053 0.1522878,0.00619 0.032277,-0.025384 0.054072,-0.067835 0.1009975,-0.19669 0.019565,-0.053755 0.036969,-0.079129 0.063765,-0.092982 0.055788,-0.028863 0.099714,-0.023553 0.1401474,0.016877 0.029824,0.029828 0.037466,0.05115 0.044911,0.1254272 0.011245,0.112557 -0.010773,0.3162254 -0.045555,0.4193229 C 5.002188,4.038891 4.9651507,4.1000632 4.8759755,4.2017098 4.7397481,4.3569899 4.6968395,4.4979807 4.7042418,4.7659954 4.9499052,5.6110155 4.4417092,6.4310394 3.2621301,6.5240855 2.7853978,6.561689 2.2704505,6.468521 1.9404608,6.5149592 Z M 2.6360074,5.836853 c 0.031805,-0.022267 0.047416,-0.066784 0.06747,-0.1923289 0.029017,-0.1816141 0.042741,-0.1987827 0.159022,-0.1987827 0.060025,0 0.074212,0.00472 0.095865,0.032285 0.013973,0.017773 0.029463,0.062487 0.034421,0.099392 0.011708,0.087144 0.036068,0.144955 0.068353,0.1622411 0.01423,0.00755 0.063456,0.013852 0.109381,0.013852 0.1172293,0 0.1380639,-0.021298 0.1819674,-0.1859551 C 3.4124262,5.342772 3.4492937,5.2998489 3.6294994,5.2451207 3.8075504,5.1910486 3.8972016,5.1221827 3.9658115,4.9867869 4.0295246,4.8610444 4.0435744,4.7782293 4.0424165,4.5351738 4.0386424,3.7481652 3.7637026,3.1823559 3.2618496,2.928912 3.165906,2.8804582 2.9941783,2.8231951 2.8642869,2.7963406 2.7058319,2.7635705 2.3025652,2.7629787 2.1274949,2.7952512 1.8869462,2.8395888 1.1852979,3.0469009 0.98770891,3.9707854 0.92794312,4.2502668 0.90954541,4.6640803 0.95022131,4.8138074 1.0107063,5.036402 1.1434311,5.1760287 1.3634328,5.248501 1.5050201,5.295162 1.559154,5.3508777 1.5991651,5.4912103 c 0.071296,0.2500902 0.080328,0.2616629 0.2044446,0.2620094 0.1221442,3.363e-4 0.1556416,-0.034344 0.1764908,-0.1827128 0.00472,-0.033589 0.019874,-0.075438 0.033683,-0.092983 0.021289,-0.027079 0.035776,-0.031917 0.095551,-0.031917 0.1162695,0 0.130008,0.017155 0.1590211,0.1987826 0.031985,0.20027 0.043642,0.2116076 0.217532,0.2116076 0.088283,0 0.1302327,-0.0054 0.1500603,-0.019282 z M 2.3384703,4.9253669 c -0.1055546,-0.055039 -0.097475,-0.1675722 0.020903,-0.291125 0.092326,-0.096355 0.1607992,-0.096355 0.2531215,0 0.062761,0.065495 0.1083414,0.1556882 0.096778,0.1914975 C 2.6782315,4.9218503 2.6335345,4.9456136 2.4840035,4.9455025 2.4119617,4.9454533 2.3643467,4.938855 2.338466,4.9253653 Z M 1.6444634,4.5665075 C 1.5742597,4.5406229 1.4935065,4.4698193 1.4502687,4.3962522 1.4185732,4.3423609 1.415085,4.3243001 1.415085,4.2145783 c 0,-0.1018059 0.00483,-0.1318445 0.030001,-0.1827512 0.041705,-0.084703 0.1240073,-0.1650948 0.2141406,-0.2091933 0.064116,-0.031377 0.091727,-0.03726 0.1725863,-0.036868 0.1988599,10e-4 0.3395708,0.1179496 0.3734945,0.3105375 0.030956,0.1757091 -0.067161,0.360087 -0.2387612,0.4486556 -0.080379,0.041477 -0.2392612,0.052124 -0.3220882,0.021567 z M 3.0159949,4.5490387 C 2.8302551,4.461166 2.7286564,4.269856 2.7677437,4.0815735 2.8089325,3.8831712 3.0063882,3.750739 3.2023446,3.7900933 c 0.2061935,0.041413 0.344929,0.1940642 0.3580405,0.393972 0.00858,0.128707 -0.020346,0.209246 -0.1050477,0.2939493 C 3.3396056,4.5937438 3.1688377,4.6213489 3.0159889,4.5490382 Z M 4.8795498,2.8806529 c -0.06596,-0.041823 -0.1102697,-0.116527 -0.1102354,-0.1857941 2.83e-5,-0.048745 0.04492,-0.1583815 0.1061259,-0.2591173 0.026118,-0.042989 0.052563,-0.1053188 0.058755,-0.1385024 0.00618,-0.03319 0.020217,-0.069293 0.031145,-0.080213 0.052906,-0.052907 0.1785167,0.00647 0.2274947,0.1077425 C 5.249892,2.4426427 5.237034,2.6780439 5.16591,2.8174636 5.1113923,2.9243548 4.9905236,2.9510181 4.8795635,2.8806358 Z M 0.18288076,1.0985918 C 0.14164909,1.0818975 0.08969264,1.01265 0.08011663,0.96156212 0.05785736,0.84288832 0.10761328,0.62016982 0.17767829,0.52489322 c 0.11165257,-0.1518291 0.32316649,-0.1525022 0.28130584,-9.092e-4 -0.009417,0.033936 -0.006099,0.077335 0.013343,0.1759059 0.0408123,0.2070674 0.0314217,0.2776799 -0.0463678,0.34844898 -0.0614873,0.055932 -0.17236013,0.078847 -0.24308647,0.050239 z M 3.2978653,0.77073942 c -0.1726386,-0.086033 -0.180119,-0.2315696 -0.024974,-0.4858641 0.025466,-0.041733 0.049629,-0.096571 0.05372,-0.1218333 0.014547,-0.090286 0.025604,-0.1036586 0.085646,-0.1035629 0.064193,9.65e-5 0.114735,0.029564 0.1562875,0.091129 0.05137,0.076078 0.062864,0.1331617 0.055076,0.2733127 -0.011013,0.1985144 -0.065308,0.3227521 -0.1578649,0.3614314 -0.060557,0.025302 -0.093542,0.022442 -0.1678876,-0.0146 z"
     id="path68" /></svg>
