<?xml version="1.0" encoding="UTF-8" standalone="no"?>
<!-- Created with Inkscape (http://www.inkscape.org/) -->

<svg
   width="31.598667mm"
   height="8.8486996mm"
   viewBox="0 0 31.598667 8.8486997"
   version="1.1"
   id="svg1"
   xml:space="preserve"
   sodipodi:docname="logo.svg"
   inkscape:export-filename="logo.svg"
   inkscape:export-xdpi="96"
   inkscape:export-ydpi="96"
   xmlns:inkscape="http://www.inkscape.org/namespaces/inkscape"
   xmlns:sodipodi="http://sodipodi.sourceforge.net/DTD/sodipodi-0.dtd"
   xmlns="http://www.w3.org/2000/svg"
   xmlns:svg="http://www.w3.org/2000/svg"><sodipodi:namedview
     id="namedview1"
     pagecolor="#ffffff"
     bordercolor="#000000"
     borderopacity="0.25"
     inkscape:showpageshadow="2"
     inkscape:pageopacity="0.0"
     inkscape:pagecheckerboard="0"
     inkscape:deskcolor="#d1d1d1"
     inkscape:document-units="mm"
     showguides="true"><sodipodi:guide
       position="10.408345,1.2870816"
       orientation="0,-1"
       id="guide3"
       inkscape:locked="false" /><sodipodi:guide
       position="11.895216,2.6337479"
       orientation="0,-1"
       id="guide4"
       inkscape:locked="false" /></sodipodi:namedview><defs
     id="defs1" /><path
     style="fill:#ff7f2a;fill-opacity:1;stroke-width:0.0483611"
     d="M 2.48448,7.5696244 C 1.6840693,7.6455008 1.5640421,7.5348945 1.1413885,7.0941168 1.0385391,6.9868525 0.85316918,6.8461041 0.81102493,6.7587378 0.71518275,6.5600699 0.74021467,6.4310892 0.92406095,6.1762703 1.027342,6.0331299 1.057934,5.9631128 1.0580908,5.869629 1.0582763,5.7530032 1.0149736,5.6788676 0.8497121,5.5131174 0.77360847,5.4367799 0.69118704,5.3439606 0.66655048,5.3068659 0.53166252,5.1037028 0.50941536,4.7975087 0.61630381,4.6151204 0.66000659,4.5405633 0.7639737,4.4436719 0.85678264,4.3910615 0.91012603,4.3608268 0.9447565,4.3308145 0.9610579,4.3007222 1.0091569,4.2118925 0.96447511,4.1493853 0.75434165,4.0111756 0.57750813,3.8948992 0.53918268,3.8466307 0.55014825,3.7540351 0.56995719,3.5866129 0.76973148,3.3039338 0.86821112,3.3039338 c 0.0200909,0 0.0236892,0.010403 0.0236892,0.068318 0,0.088965 0.0414852,0.2494867 0.0852938,0.3299734 C 1.0488842,3.8339374 1.1676498,3.9004736 1.2682025,3.865257 1.3526541,3.8356665 1.3718254,3.7958333 1.3711039,3.6516268 1.3703285,3.4920044 1.3447323,3.4258122 1.2036206,3.2177934 1.0559499,3.0001335 1.040558,2.9677482 1.0397335,2.8732277 1.0387921,2.7562556 1.0725461,2.7164426 1.3269482,2.5350969 1.6925317,2.2745055 1.7833995,2.1639141 1.7725046,1.9928272 1.7664985,1.8977279 1.7197156,1.7954451 1.5880544,1.5893238 1.4767014,1.414965 1.4293383,1.3140362 1.4293214,1.2510813 c -1.56e-5,-0.07134 0.043377,-0.1544605 0.090964,-0.1741641 0.050265,-0.020837 0.086977,-0.00239 0.2148223,0.1082452 0.1236379,0.1069417 0.2484872,0.1772137 0.4208016,0.2368664 0.150247,0.052014 0.2213277,0.094387 0.3055686,0.182139 0.1239796,0.1291539 0.1563112,0.2924577 0.086898,0.438795 -0.031154,0.06564 -0.099213,0.138657 -0.1962804,0.210637 -0.094639,0.070159 -0.1338739,0.1146958 -0.1813015,0.2058249 -0.042534,0.081738 -0.043377,0.235492 -0.00171,0.3262881 0.03193,0.069662 0.1039307,0.1515162 0.158561,0.1801914 0.1501438,0.078819 0.3977097,-0.1125812 0.3985669,-0.3081476 1.532e-4,-0.035176 -0.00434,-0.093731 -0.010172,-0.1300816 -0.00963,-0.061 -0.00773,-0.068657 0.022637,-0.099167 0.043564,-0.043551 0.088526,-0.042243 0.183817,0.0054 0.1734589,0.086684 0.3504143,0.2825356 0.3932708,0.4352763 0.02973,0.1059815 0.025078,0.1781465 -0.020141,0.3110897 -0.048637,0.1429683 -0.044568,0.1915245 0.021606,0.2577072 0.073688,0.073684 0.2451449,0.1068454 0.3423769,0.06622 0.05691,-0.023739 0.1201142,-0.099435 0.1377366,-0.1648095 0.00854,-0.031352 0.012614,-0.1088663 0.00949,-0.1825064 C 3.8024982,3.0425847 3.7942248,3.0076509 3.7332861,2.8310903 3.652247,2.5968058 3.642441,2.4983855 3.6922037,2.4178977 3.7518137,2.3214377 3.8279371,2.2975625 4.1245035,2.2823 4.2914277,2.27359 4.3388807,2.266987 4.3726919,2.247204 4.4404119,2.207538 4.4646489,2.16403 4.4736416,2.0659129 c 0.010308,-0.1114596 0.037434,-0.1566907 0.094168,-0.1566264 0.1007462,1.153e-4 0.1874519,0.1174816 0.1982427,0.2683452 0.01085,0.1527545 -0.042778,0.2794001 -0.2199014,0.5185341 -0.1386115,0.1871337 -0.156828,0.218535 -0.1806962,0.3117008 -0.041435,0.1616981 0.00746,0.2718943 0.2655247,0.5968621 0.3602571,0.4538945 0.4291016,0.5946119 0.443431,0.9063434 0.00773,0.1737658 0.00868,0.177648 0.044039,0.2079239 0.043985,0.037807 0.1084229,0.040436 0.1519453,0.00617 0.032239,-0.025307 0.053954,-0.067684 0.1007868,-0.1962441 0.019788,-0.053632 0.036891,-0.078948 0.063611,-0.09277 0.055649,-0.028809 0.099485,-0.023509 0.1398443,0.016829 0.029852,0.02976 0.03738,0.051031 0.044785,0.1251434 0.011257,0.1123046 -0.01085,0.3155077 -0.045477,0.4183724 C 5.5393319,5.0991909 5.5023863,5.1602235 5.4134182,5.2616403 5.2774801,5.4165683 5.2347009,5.5572399 5.2421009,5.8246473 5.4872065,6.6677528 4.9801772,7.4859188 3.8032591,7.5787541 3.3276052,7.6162721 2.8138255,7.5233152 2.484583,7.5696533 Z M 3.1784539,6.8930537 c 0.031724,-0.022224 0.047308,-0.066641 0.067327,-0.1918944 0.028944,-0.1812038 0.042642,-0.198333 0.1586657,-0.198333 0.059881,0 0.07404,0.00473 0.095646,0.032203 0.013875,0.017754 0.029391,0.062345 0.034355,0.099167 0.011529,0.086946 0.035996,0.1446281 0.068208,0.1618754 0.014133,0.00753 0.063312,0.013848 0.1091146,0.013848 0.116954,0 0.1377637,-0.021248 0.1815438,-0.185533 C 3.9531007,6.4001094 3.9898972,6.3572835 4.1696941,6.3026793 4.3473318,6.248731 4.4367772,6.1800207 4.5052529,6.0449315 4.5688228,5.9194654 4.5828198,5.8368406 4.581667,5.5943345 4.5778693,4.8091049 4.3035788,4.2445778 3.8028536,3.9917079 3.7071258,3.9433652 3.5357908,3.8862323 3.4061934,3.8594359 3.2480946,3.8267585 2.8457447,3.8261481 2.6710706,3.8583234 2.4310665,3.9025579 1.7310085,4.1094035 1.5338675,5.0311943 c -0.059627,0.2788468 -0.07799,0.6917237 -0.0374,0.841112 0.060349,0.2220908 0.1927706,0.3614007 0.4122741,0.4337088 0.1412623,0.046555 0.1952781,0.1021432 0.2351991,0.2421592 0.071139,0.2495225 0.080137,0.2610698 0.2039826,0.2614159 0.1218693,3.353e-4 0.1552953,-0.034266 0.1760929,-0.1822983 0.00461,-0.033526 0.019802,-0.075268 0.033596,-0.09277 0.021253,-0.027011 0.035698,-0.031828 0.095348,-0.031828 0.1160045,0 0.1297168,0.017111 0.158663,0.198333 0.031927,0.1998155 0.043551,0.2111279 0.2170396,0.2111279 0.088078,0 0.1299473,-0.0054 0.1497127,-0.019243 z M 2.8815918,5.9836331 c -0.1053305,-0.054915 -0.097247,-0.1671911 0.02086,-0.2904656 0.09212,-0.096139 0.1604344,-0.096139 0.2525504,0 0.06262,0.065347 0.1080837,0.1553366 0.096569,0.1910645 -0.030978,0.095895 -0.075573,0.1196015 -0.2247583,0.1194903 -0.071871,-4.97e-5 -0.1193953,-0.00669 -0.1452126,-0.020091 z M 2.1891571,5.6255866 c -0.070058,-0.025824 -0.1506065,-0.09647 -0.1937545,-0.169871 -0.031625,-0.053769 -0.035096,-0.071795 -0.035096,-0.1812602 0,-0.1015776 0.00483,-0.1315451 0.029929,-0.1823368 0.041609,-0.084507 0.1237219,-0.1647222 0.2136561,-0.2087179 0.063974,-0.031318 0.091511,-0.037178 0.1721933,-0.036784 0.1984095,0.00103 0.3388017,0.1176823 0.3726496,0.3098345 0.030869,0.1753124 -0.067015,0.3592712 -0.238221,0.4476391 -0.080189,0.041382 -0.2387186,0.052009 -0.3213573,0.021504 z M 3.5575812,5.6081418 C 3.3722628,5.5204704 3.2708927,5.3295936 3.3098918,5.1417396 3.3509878,4.9437876 3.5479948,4.8116544 3.7435072,4.8509176 3.9492516,4.892236 4.0876555,5.0445437 4.1007343,5.2439973 4.109279,5.3724107 4.080444,5.4527718 3.9959056,5.5372793 3.8804436,5.6527441 3.7100594,5.6802913 3.5575541,5.6081367 Z M 5.4169134,3.9435441 C 5.3511192,3.9018148 5.3069037,3.8272805 5.3069444,3.7581705 c 2.98e-5,-0.048636 0.044839,-0.1580215 0.1059001,-0.2585284 0.026122,-0.04289 0.052462,-0.1050795 0.058606,-0.1381894 0.0061,-0.033118 0.020046,-0.069131 0.031222,-0.080033 0.052801,-0.052785 0.1781002,0.00643 0.2269664,0.1074978 0.056938,0.1176077 0.044121,0.3524746 -0.026801,0.4915787 C 5.6484506,3.987144 5.5278468,4.0137505 5.417125,3.9435253 Z M 0.73088548,2.1655276 C 0.68974204,2.148879 0.637915,2.0797822 0.62836256,2.0288077 0.60613819,1.9104039 0.65581548,1.6881897 0.72569898,1.5931283 0.83710432,1.441643 1.0481324,1.4409725 1.0063683,1.5921869 c -0.009426,0.033866 -0.00601,0.07716 0.013414,0.1755105 0.040712,0.2065981 0.031352,0.2770484 -0.0462648,0.3476587 -0.0613456,0.055809 -0.17196996,0.078666 -0.24253689,0.050126 z M 3.838816,1.8384184 C 3.6665737,1.7525793 3.6590964,1.6073763 3.8141448,1.3536548 c 0.025431,-0.041634 0.049505,-0.096352 0.053574,-0.1215559 0.014648,-0.09008 0.025431,-0.1034222 0.085447,-0.1033272 0.064031,9.68e-5 0.1144855,0.029487 0.1559274,0.090922 0.051282,0.075911 0.062715,0.132858 0.054984,0.2726916 -0.01085,0.1980632 -0.065157,0.3220196 -0.1575197,0.3606128 -0.06041,0.025256 -0.093314,0.022403 -0.1675155,-0.014568 z"
     id="path68" /><path
     style="font-size:2.46944px;font-family:Offside;-inkscape-font-specification:Offside;fill:#ffffff;stroke-width:2.06276;paint-order:markers stroke fill;fill-opacity:1"
     d="m 7.5068971,3.8515513 v 2.5700156 c 0,0.1949338 0.084633,0.3436967 0.2539189,0.4462882 0.1692869,0.1025976 0.4129467,0.1538979 0.7309915,0.1538979 0.6566119,0 0.9849185,-0.2000595 0.9849185,-0.6001821 V 6.0983926 c 0,-0.1179902 0.1025907,-0.176985 0.3077844,-0.176985 0.2051801,0 0.3077886,0.058995 0.3077886,0.176985 v 0.2462212 c 0,0.3949929 -0.1385085,0.6976492 -0.4155116,0.9079697 C 9.4049098,7.457779 9.0099165,7.5603774 8.4918102,7.5603774 7.973704,7.5603774 7.5761459,7.4552179 7.2991373,7.2448967 7.0272597,7.0345757 6.8913215,6.7344838 6.8913215,6.34462 V 3.9284984 c 0,-0.3949929 0.1359382,-0.6950849 0.4078158,-0.9002766 0.2770086,-0.2103212 0.6745667,-0.3154809 1.1926729,-0.3154809 0.5181063,0 0.9130996,0.1051595 1.1849772,0.3154809 0.2770086,0.2051953 0.4155116,0.5052879 0.4155116,0.9002766 V 4.174722 c 0,0.1179902 -0.1025909,0.1769852 -0.3077886,0.1769852 -0.2051801,0 -0.3077844,-0.058995 -0.3077844,-0.1769852 V 3.8515479 c 0,-0.4001236 -0.3283066,-0.6001851 -0.9849185,-0.6001851 -0.3180448,0 -0.5617087,0.051301 -0.7309915,0.1538978 C 7.5915277,3.5078581 7.5068971,3.6566228 7.5068971,3.8515513 Z m 7.3022369,0.076934 v 2.4161218 c 0,0.3898639 -0.143621,0.6899562 -0.430901,0.9002767 -0.28214,0.210321 -0.69252,0.3154806 -1.231147,0.3154806 -0.538625,0 -0.951571,-0.1051596 -1.238839,-0.3154809 C 11.620979,7.034562 11.477346,6.7344706 11.477346,6.3446069 V 3.928484 c 0,-0.3949926 0.141077,-0.6950848 0.423207,-0.9002765 0.287266,-0.210321 0.700214,-0.3154807 1.238838,-0.3154807 0.538628,0 0.951574,0.1051595 1.238842,0.3154807 0.287267,0.2051955 0.430901,0.505288 0.430901,0.9002778 z m -0.615574,2.49307 V 3.8515387 c 0,-0.1949339 -0.08977,-0.3436978 -0.26931,-0.4462917 -0.179539,-0.1025975 -0.441161,-0.1538979 -0.784856,-0.1538979 -0.697648,0 -1.046474,0.2000621 -1.046474,0.6001855 v 2.5700156 c 0,0.1949338 0.08977,0.3436967 0.269313,0.4462883 0.179539,0.1025975 0.441158,0.1538979 0.784853,0.1538979 0.697651,0 1.046474,-0.2000596 1.046474,-0.6001811 z m 2.609859,-3.4548899 v 3.5780169 c 0,0.1384927 0.01798,0.2513467 0.05386,0.3385636 0.04103,0.087205 0.07952,0.1590185 0.115408,0.2154365 0.04103,0.05131 0.06156,0.092347 0.06156,0.1231102 0,0.035915 -0.02313,0.079519 -0.06927,0.1308073 -0.04617,0.046179 -0.100013,0.084651 -0.16158,0.1154159 -0.05642,0.035915 -0.110295,0.053875 -0.161579,0.053875 -0.07182,0 -0.143647,-0.043602 -0.215458,-0.1308086 C 16.35454,7.2987462 16.295558,7.1833252 16.249391,7.044822 16.208361,6.9063062 16.187831,6.7652389 16.187831,6.6216163 V 2.9666551 c 0,-0.1179902 0.102591,-0.176985 0.307789,-0.176985 0.20518,0 0.307788,0.058995 0.307788,0.176985 z m 0.02312,-0.9695253 c 0,0.128252 -0.110295,0.1923775 -0.330873,0.1923775 -0.225709,0 -0.338566,-0.064126 -0.338566,-0.1923775 V 1.3277017 c 0,-0.128252 0.110295,-0.19238 0.330873,-0.19238 0.225709,0 0.338566,0.064126 0.338566,0.19238 z m 4.941169,1.9313575 v 3.3779538 c 0,0.1179902 -0.102591,0.1769852 -0.307797,0.1769852 -0.205206,0 -0.307792,-0.058995 -0.307792,-0.1769852 V 3.8515513 c 0,-0.1949339 -0.08977,-0.3436978 -0.269312,-0.4462916 -0.179538,-0.1025976 -0.441159,-0.1538979 -0.784856,-0.1538979 -0.69765,0 -1.046474,0.2000621 -1.046474,0.600185 v 3.4548995 c 0,0.1179901 -0.102591,0.1769851 -0.307792,0.1769851 -0.205206,0 -0.307794,-0.058995 -0.307794,-0.1769851 V 3.9284935 c 0,-0.3949929 0.141077,-0.6950849 0.423207,-0.9002766 0.287266,-0.2103212 0.700211,-0.3154809 1.238839,-0.3154809 0.538624,0 0.951571,0.1051596 1.238838,0.3154809 0.287268,0.2051953 0.430902,0.5052879 0.430902,0.9002766 z m 1.538929,3.5164578 c -0.102591,0 -0.153897,-0.08977 -0.153897,-0.2693118 V 6.9063309 c 0,-0.097467 0.0052,-0.1821056 0.01516,-0.2539186 0.01542,-0.071814 0.04614,-0.1436337 0.09234,-0.2154673 0.05128,-0.076944 0.125662,-0.1718439 0.223139,-0.2847046 0.102591,-0.1128593 0.238529,-0.2564929 0.407815,-0.4309021 L 25.44552,4.1285448 c 0.107731,-0.1077284 0.184678,-0.189803 0.230821,-0.2462212 0.04614,-0.056421 0.07435,-0.1077189 0.08463,-0.1538979 0.01542,-0.05129 0.02313,-0.1154159 0.02313,-0.19238 V 3.3667556 h -2.254535 c -0.102591,0 -0.153899,-0.089772 -0.153899,-0.2693117 0,-0.1795415 0.05128,-0.269312 0.153899,-0.269312 h 2.716211 c 0.102591,0 0.153899,0.089772 0.153899,0.269312 v 0.4232085 c 0,0.128252 -0.01542,0.2385416 -0.04617,0.3308703 -0.03077,0.092336 -0.100041,0.2026262 -0.207775,0.3308676 -0.10259,0.1231211 -0.264186,0.2975339 -0.48476,0.523237 l -1.554323,1.5927935 c -0.09748,0.1025975 -0.17183,0.1846723 -0.223139,0.2462238 -0.04617,0.061549 -0.07693,0.1179793 -0.09234,0.1692901 -0.01542,0.05129 -0.02313,0.115416 -0.02313,0.19238 h 2.485379 c 0.102591,0 0.153898,0.08977 0.153898,0.2693117 0,0.1795415 -0.05131,0.2693118 -0.153898,0.2693118 z m 6.660558,0 h -0.900308 c -0.456552,0 -0.784859,-0.092336 -0.984918,-0.2770081 C 27.887044,6.9781441 27.789572,6.665229 27.789572,6.2292015 v -0.061572 c 0,-0.2821372 0.03589,-0.5052818 0.107731,-0.6694343 0.07182,-0.1692798 0.197498,-0.2949592 0.377037,-0.3770396 0.179538,-0.082074 0.428334,-0.138503 0.746382,-0.1692902 L 30.351881,4.8210573 V 3.9669506 c 0,-0.4001217 -0.348827,-0.6001824 -1.046474,-0.6001824 h -1.054159 c -0.102591,0 -0.153899,-0.08977 -0.153899,-0.2693118 0,-0.1795414 0.05131,-0.2693117 0.153899,-0.2693117 h 1.054166 c 0.538624,0 0.949007,0.1051596 1.231147,0.3154809 0.287265,0.2051953 0.430898,0.505288 0.430898,0.9002764 v 2.2699211 c 0,0.215452 0.01798,0.3847341 0.05387,0.5078476 0.04106,0.1179902 0.07952,0.207762 0.115408,0.2693114 0.04103,0.056421 0.06153,0.1000233 0.06153,0.1308086 0,0.035915 -0.02313,0.079519 -0.06924,0.1308086 -0.04617,0.046179 -0.100041,0.084651 -0.161581,0.115416 -0.05642,0.035915 -0.110267,0.053875 -0.161606,0.053875 -0.08208,0 -0.15901,-0.051301 -0.230821,-0.1538979 C 30.50836,7.260262 30.454484,7.1217565 30.413427,6.9524787 30.372371,6.778068 30.351868,6.5908318 30.351868,6.390769 V 5.3596843 l -1.285006,0.1308086 c -0.26675,0.025667 -0.443727,0.08465 -0.530934,0.176985 -0.0872,0.092336 -0.130802,0.2590541 -0.130802,0.500154 v 0.061572 c 0,0.2616173 0.04617,0.4411586 0.138508,0.5386234 0.09748,0.092336 0.27188,0.1385055 0.523237,0.1385055 h 0.900275 c 0.10259,0 0.153896,0.08977 0.153896,0.2693117 0,0.1795415 -0.05128,0.2693118 -0.153896,0.2693118 z"
     id="text1"
     aria-label="coinza"
     sodipodi:nodetypes="sscsssssscscsscscsssssscssscsssscscssscssscsscsccsccsccsssccssssssscsssscsssssscsccccsscccccccscsssssssccccccsscccscsscsccsssssscssccsccsccsccssscssscc" /></svg>
