<?xml version="1.0" encoding="UTF-8" standalone="no"?>
<!-- Created with Inkscape (http://www.inkscape.org/) -->

<svg
   width="31.598667mm"
   height="8.8486996mm"
   viewBox="0 0 31.598667 8.8486997"
   version="1.1"
   id="svg1"
   xml:space="preserve"
   sodipodi:docname="logo.svg"
   xmlns:inkscape="http://www.inkscape.org/namespaces/inkscape"
   xmlns:sodipodi="http://sodipodi.sourceforge.net/DTD/sodipodi-0.dtd"
   xmlns="http://www.w3.org/2000/svg"
   xmlns:svg="http://www.w3.org/2000/svg"><sodipodi:namedview
     id="namedview1"
     pagecolor="#ffffff"
     bordercolor="#000000"
     borderopacity="0.25"
     inkscape:showpageshadow="2"
     inkscape:pageopacity="0.0"
     inkscape:pagecheckerboard="0"
     inkscape:deskcolor="#d1d1d1"
     inkscape:document-units="mm" /><defs
     id="defs1"><rect
       x="22.538586"
       y="-73.892326"
       width="61.719587"
       height="24.725875"
       id="rect2" /><rect
       x="22.538586"
       y="-73.892326"
       width="61.719587"
       height="24.725875"
       id="rect3" /><rect
       x="22.538586"
       y="-73.892326"
       width="61.719587"
       height="24.725875"
       id="rect4" /><rect
       x="22.538586"
       y="-73.892326"
       width="61.719587"
       height="24.725875"
       id="rect5" /></defs><path
     d="m 27.543059,2.1756849 c -0.141174,0 -0.211259,0.1233278 -0.211259,0.3703878 0,0.24706 0.07008,0.3709356 0.211259,0.3709356 h 1.450822 c 0.960003,0 1.439847,0.2752371 1.439847,0.8258269 v 1.336688 l -1.831635,0.1799812 c -0.437648,0.042357 -0.780149,0.1197175 -1.027209,0.2326583 -0.24706,0.1129418 -0.419716,0.2861496 -0.518542,0.5190913 -0.09883,0.2258826 -0.148156,0.5330684 -0.148156,0.9213047 v 0.084501 c 0,0.6000016 0.133978,1.0305151 0.402215,1.2916924 0.275294,0.254118 0.727106,0.3813629 1.355343,0.3813629 h 0.915818 c 0.121052,-0.07263 0.211807,-0.1233277 0.211807,-0.3703877 0,-0.24706 -0.07063,-0.3709367 -0.211807,-0.3709367 h -0.915818 c -0.345884,0 -0.585805,-0.06335 -0.719923,-0.1904065 -0.127059,-0.1341178 -0.190955,-0.3813232 -0.190955,-0.741324 v -0.084501 c 0,-0.3317654 0.05998,-0.5615874 0.17998,-0.6886464 0.12,-0.127058 0.363838,-0.2077878 0.730898,-0.2430835 L 30.433728,5.820848 v 1.4184477 c 0,0.2752954 0.02859,0.5331491 0.08505,0.7731499 0.05647,0.2329418 0.130467,0.423533 0.222232,0.5717684 0.09882,0.1411741 0.204769,0.2118068 0.31771,0.2118068 0.07059,0 0.14458,-0.024667 0.222232,-0.074074 0.08471,-0.042346 0.158703,-0.095598 0.222234,-0.1591298 0.06353,-0.070591 0.09548,-0.1305727 0.09548,-0.1799802 0,-0.042357 -0.02803,-0.1023404 -0.0845,-0.1799813 -0.04942,-0.084703 -0.102659,-0.2080341 -0.15913,-0.3703877 -0.04941,-0.1694117 -0.07407,-0.4026009 -0.07407,-0.6990727 V 3.8487423 c 0,-0.5435307 -0.197873,-0.9566618 -0.593169,-1.2390154 C 30.29956,2.3203143 29.73507,2.1756881 28.993891,2.1756881 Z"
     style="font-size:9.9716px;font-family:Offside;-inkscape-font-specification:Offside;fill:#ffffff;stroke-width:1.79655"
     id="path63" /><path
     style="fill:#ff7f2a;fill-opacity:1;stroke-width:0.0447994"
     d="m 8.4567346,-16.348498 c -0.7414595,0.07029 -0.8526461,-0.03217 -1.2441714,-0.440486 -0.095276,-0.09936 -0.2669893,-0.229747 -0.3060331,-0.310677 -0.088785,-0.184034 -0.065602,-0.303517 0.1047128,-0.539567 0.095667,-0.132599 0.1240167,-0.197457 0.1241586,-0.284057 1.721e-4,-0.108036 -0.039948,-0.176711 -0.1930327,-0.330255 -0.070493,-0.07071 -0.1468524,-0.156699 -0.1696699,-0.191061 -0.1249561,-0.188201 -0.1455594,-0.471843 -0.046551,-0.640798 0.040479,-0.06907 0.1368001,-0.158821 0.2227655,-0.207559 0.049405,-0.02801 0.081494,-0.05581 0.096594,-0.08368 0.044554,-0.08229 0.00317,-0.14019 -0.1914916,-0.26822 -0.1638065,-0.107712 -0.1993122,-0.152427 -0.1891521,-0.238203 0.018361,-0.155091 0.2034117,-0.416951 0.2946363,-0.416951 0.018598,0 0.021928,0.0097 0.021928,0.06329 0,0.08241 0.038425,0.231112 0.079015,0.305669 0.066402,0.12201 0.1764282,0.183646 0.2695777,0.151023 0.078222,-0.0274 0.095996,-0.06431 0.095319,-0.197896 -7.072e-4,-0.147868 -0.024409,-0.209187 -0.1551408,-0.401884 -0.1367874,-0.201628 -0.1510588,-0.231628 -0.1518246,-0.319188 -8.721e-4,-0.108355 0.030387,-0.145237 0.2660617,-0.313227 0.338658,-0.241398 0.4228325,-0.343845 0.4127406,-0.502332 -0.00563,-0.0881 -0.048906,-0.182843 -0.1708654,-0.373784 -0.1031526,-0.161516 -0.1470292,-0.255011 -0.1470403,-0.313329 -1.34e-5,-0.06609 0.040186,-0.143083 0.084262,-0.161337 0.046567,-0.01929 0.080577,-0.0022 0.1990039,0.100274 0.1145233,0.09906 0.2301858,0.164161 0.3898081,0.21942 0.1391744,0.04818 0.2050289,0.08743 0.2830635,0.168725 0.1148515,0.119641 0.1448015,0.270916 0.080484,0.406476 -0.028857,0.06081 -0.091893,0.128447 -0.1818246,0.195122 -0.08767,0.06499 -0.1240151,0.106248 -0.1679487,0.190664 -0.039401,0.07572 -0.040177,0.218147 -0.00159,0.302256 0.029578,0.06453 0.096286,0.140355 0.1468913,0.166922 0.1390848,0.07301 0.3684168,-0.10429 0.3692112,-0.285454 1.419e-4,-0.03258 -0.00404,-0.08683 -0.00947,-0.1205 -0.00897,-0.05651 -0.00721,-0.0636 0.020969,-0.09186 0.04036,-0.04034 0.082008,-0.03914 0.1702787,0.005 0.1606838,0.0803 0.3246061,0.261725 0.3643055,0.403218 0.027541,0.09818 0.023212,0.165024 -0.018662,0.288178 -0.045053,0.132439 -0.041272,0.17742 0.020041,0.238726 0.068249,0.06826 0.2270908,0.09897 0.3171596,0.06134 0.052711,-0.02201 0.1112868,-0.09211 0.1275948,-0.152672 0.00793,-0.02903 0.011559,-0.100847 0.00878,-0.169063 -0.0042,-0.105881 -0.01159,-0.138242 -0.068162,-0.301797 -0.075067,-0.217028 -0.084137,-0.3082 -0.038053,-0.382761 0.055232,-0.08936 0.1257215,-0.111471 0.4004632,-0.125609 0.1546306,-0.0081 0.1985836,-0.01418 0.2298966,-0.03251 0.06273,-0.03674 0.08518,-0.07705 0.09351,-0.167938 0.0095,-0.103248 0.03466,-0.145152 0.08724,-0.14509 0.09333,1.08e-4 0.173643,0.10883 0.183641,0.24858 0.01007,0.141505 -0.03962,0.258822 -0.203723,0.480344 -0.128411,0.173353 -0.145274,0.202441 -0.167384,0.288743 -0.03838,0.149788 0.007,0.25187 0.245968,0.552903 0.333722,0.420465 0.397497,0.550818 0.410773,0.839591 0.0073,0.160967 0.0082,0.164564 0.0408,0.192612 0.04074,0.03503 0.100434,0.03746 0.140752,0.0057 0.02983,-0.02346 0.04998,-0.0627 0.09335,-0.18179 0.01808,-0.04968 0.03417,-0.07313 0.05893,-0.08594 0.05156,-0.02668 0.09216,-0.02177 0.129531,0.0156 0.02756,0.02757 0.03463,0.04727 0.04151,0.115927 0.01039,0.10403 -0.01,0.292271 -0.0421,0.387559 -0.03204,0.09513 -0.06628,0.151666 -0.148696,0.245614 -0.125908,0.143518 -0.165566,0.273828 -0.158725,0.52154 0.227055,0.78101 -0.242646,1.538917 -1.3328707,1.624915 -0.4406201,0.03476 -0.9165602,-0.05136 -1.2215532,-0.0084 z m 0.642863,-0.626741 c 0.029396,-0.02058 0.043824,-0.06172 0.062359,-0.17776 0.026819,-0.167857 0.039504,-0.183725 0.1469761,-0.183725 0.055478,0 0.06859,0.0044 0.088603,0.02984 0.012914,0.01643 0.027232,0.05775 0.031814,0.09186 0.010821,0.08054 0.033336,0.133975 0.063176,0.149951 0.013152,0.007 0.058649,0.0128 0.1010954,0.0128 0.1083495,0 0.1276059,-0.01968 0.1681837,-0.171869 0.055399,-0.207758 0.089473,-0.24743 0.2560282,-0.298012 0.164564,-0.04998 0.247424,-0.113625 0.310837,-0.238766 0.05889,-0.116217 0.07187,-0.192759 0.0708,-0.417402 -0.0035,-0.727394 -0.257602,-1.250343 -0.7214392,-1.484589 -0.088676,-0.04478 -0.2473956,-0.09771 -0.3674477,-0.12253 -0.146452,-0.03028 -0.5191712,-0.03084 -0.68098,-0.001 -0.2223271,0.04098 -0.8708259,0.232587 -1.0534472,1.086488 -0.05524,0.258311 -0.072245,0.640778 -0.034644,0.779164 0.055906,0.205733 0.1785743,0.334783 0.3819106,0.401765 0.1308623,0.04313 0.1808955,0.09462 0.2178757,0.224324 0.065895,0.231146 0.074243,0.241842 0.188958,0.242162 0.1128918,3.11e-4 0.1438517,-0.03174 0.1631216,-0.168872 0.00436,-0.03105 0.018368,-0.06972 0.031132,-0.08594 0.019676,-0.02503 0.033066,-0.0295 0.088313,-0.0295 0.1074621,0 0.1201599,0.01586 0.1469753,0.183725 0.029562,0.185099 0.040336,0.195578 0.2010539,0.195578 0.081596,0 0.1203676,-0.005 0.1386933,-0.01782 z M 8.8245989,-17.81768 c -0.097559,-0.05087 -0.090091,-0.154879 0.01932,-0.269072 0.085332,-0.08906 0.1486187,-0.08906 0.2339475,0 0.058007,0.06054 0.1001346,0.143894 0.089447,0.176992 -0.02869,0.08883 -0.070002,0.110793 -0.2082056,0.110691 -0.066585,-4.6e-5 -0.1105927,-0.0062 -0.1345129,-0.01861 z M 8.183163,-18.149356 c -0.064888,-0.02393 -0.1395225,-0.08936 -0.1794844,-0.157358 -0.029293,-0.04981 -0.032519,-0.0665 -0.032519,-0.167912 0,-0.09409 0.00444,-0.121857 0.027731,-0.168908 0.038544,-0.07829 0.1146137,-0.152589 0.1979194,-0.193347 0.059259,-0.029 0.084779,-0.03444 0.1595129,-0.03407 0.1837962,9.51e-4 0.3138483,0.109015 0.3452022,0.287014 0.028611,0.162399 -0.062074,0.33281 -0.220675,0.41467 -0.07429,0.03834 -0.2211371,0.04818 -0.29769,0.01993 z m 1.2676381,-0.01615 c -0.17167,-0.08122 -0.2655726,-0.258035 -0.2294462,-0.432055 0.038069,-0.183374 0.2205672,-0.305774 0.4016799,-0.269401 0.1905746,0.03828 0.318801,0.179364 0.3309192,0.364129 0.00793,0.118957 -0.018804,0.193396 -0.09709,0.271682 -0.1069651,0.106963 -0.2647976,0.132478 -0.4060682,0.06564 z m 1.7223899,-1.542007 c -0.06096,-0.03866 -0.101916,-0.1077 -0.101885,-0.17172 2.6e-5,-0.04505 0.04152,-0.146384 0.09809,-0.239489 0.02414,-0.03973 0.04858,-0.09734 0.05431,-0.128011 0.0057,-0.03067 0.01868,-0.06404 0.02878,-0.07414 0.0489,-0.0489 0.164994,0.0059 0.210262,0.09958 0.05274,0.108945 0.04085,0.326515 -0.02488,0.455374 -0.05039,0.09879 -0.162101,0.123437 -0.264656,0.05839 z m -4.3408957,-1.647069 c -0.038108,-0.01543 -0.08613,-0.07943 -0.09498,-0.126651 -0.020572,-0.109684 0.025416,-0.315531 0.090171,-0.403591 0.1031955,-0.140328 0.2986866,-0.14095 0.2599971,-8.72e-4 -0.0087,0.03136 -0.00563,0.07148 0.012335,0.162581 0.03772,0.191382 0.029039,0.256646 -0.042857,0.322054 -0.056834,0.0517 -0.1593037,0.07287 -0.224673,0.04643 z m 2.8790248,-0.303019 c -0.1595616,-0.07952 -0.1664753,-0.214027 -0.023085,-0.449059 0.023537,-0.03857 0.04587,-0.08926 0.049651,-0.112604 0.013445,-0.08345 0.023664,-0.09581 0.079158,-0.09572 0.059331,8.8e-5 0.1060439,0.02733 0.1444487,0.08423 0.047479,0.07032 0.058102,0.123075 0.050904,0.252609 -0.01018,0.183477 -0.060361,0.298304 -0.1459068,0.334054 -0.055969,0.02339 -0.086456,0.02074 -0.1551702,-0.01349 z"
     id="path68" /><path
     d="m 24.219062,-69.712653 v 3.117333 c 0,0.236444 0.102667,0.416888 0.308,0.541333 0.205333,0.124445 0.500889,0.186667 0.886666,0.186667 0.796444,0 1.194666,-0.242667 1.194666,-0.728 v -0.392 c 0,-0.143111 0.124445,-0.214667 0.373334,-0.214667 0.248889,0 0.373333,0.07156 0.373333,0.214667 v 0.298666 c 0,0.479111 -0.168,0.846222 -0.504,1.101333 -0.329777,0.248889 -0.808888,0.373334 -1.437333,0.373334 -0.628444,0 -1.110666,-0.127556 -1.446666,-0.382667 -0.329777,-0.255111 -0.494666,-0.619111 -0.494666,-1.092 v -2.930665 c 0,-0.479111 0.164889,-0.843111 0.494666,-1.092 0.336,-0.255111 0.818222,-0.382666 1.446666,-0.382666 0.628445,0 1.107556,0.127555 1.437333,0.382666 0.336,0.248889 0.504,0.612889 0.504,1.092 v 0.298666 c 0,0.143111 -0.124444,0.214667 -0.373333,0.214667 -0.248889,0 -0.373334,-0.07156 -0.373334,-0.214667 v -0.392 c 0,-0.485333 -0.398222,-0.727999 -1.194666,-0.727999 -0.385777,0 -0.681333,0.06222 -0.886666,0.186666 -0.205333,0.124445 -0.308,0.304889 -0.308,0.541333 z m 10.245986,-1.073332 v 4.339998 c 0,0.168 0.02178,0.304889 0.06533,0.410667 0.04978,0.105777 0.09645,0.192888 0.14,0.261333 0.04978,0.06222 0.07467,0.111998 0.07467,0.149333 0,0.04355 -0.028,0.09644 -0.084,0.158667 -0.056,0.056 -0.121333,0.102667 -0.196,0.14 -0.06844,0.04355 -0.133777,0.06533 -0.195999,0.06533 -0.08711,0 -0.174222,-0.05289 -0.261334,-0.158667 -0.08711,-0.112 -0.158666,-0.252 -0.214666,-0.419999 -0.04978,-0.168 -0.07467,-0.339111 -0.07467,-0.513334 v -4.433331 c 0,-0.143111 0.124445,-0.214667 0.373333,-0.214667 0.248889,0 0.272138,0.113472 0.373333,0.214667 z m 0.028,-1.176 c 0,0.155555 -0.133777,0.233333 -0.401333,0.233333 -0.273777,0 -0.410666,-0.07778 -0.410666,-0.233333 v -0.812 c 0,-0.155555 0.133778,-0.233333 0.401333,-0.233333 0.273778,0 0.410666,0.07778 0.410666,0.233333 z m 6.066658,2.342666 v 4.097332 c 0,0.143111 -0.124444,0.214666 -0.373334,0.214666 -0.248888,0 -0.373333,-0.07156 -0.373333,-0.214666 v -4.190666 c 0,-0.236444 -0.108888,-0.416888 -0.326666,-0.541333 -0.217778,-0.124444 -0.535111,-0.186666 -0.952,-0.186666 -0.846222,0 -1.269333,0.242666 -1.269333,0.727999 v 4.190666 c 0,0.143111 -0.124444,0.214666 -0.373333,0.214666 -0.248888,0 -0.373333,-0.07156 -0.373333,-0.214666 v -4.097332 c 0,-0.479111 0.171111,-0.843111 0.513333,-1.092 0.348444,-0.255111 0.849333,-0.382666 1.502666,-0.382666 0.653334,0 1.154222,0.127555 1.502666,0.382666 0.348445,0.248889 0.522667,0.612889 0.522667,1.092 z m 4.414665,4.265332 h -1.092 c -0.553777,0 -0.951999,-0.112 -1.194666,-0.336 -0.236444,-0.230222 -0.354667,-0.609777 -0.354667,-1.138666 v -0.07467 c 0,-0.342222 0.04356,-0.612889 0.130667,-0.812 0.08711,-0.205333 0.239556,-0.357778 0.457333,-0.457333 0.217778,-0.09955 0.519556,-0.168 0.905333,-0.205333 l 1.614666,-0.158667 v -1.036 c 0,-0.485333 -0.423111,-0.727999 -1.269333,-0.727999 h -1.278666 c -0.124444,0 -0.186666,-0.108889 -0.186666,-0.326667 0,-0.217777 0.06222,-0.326666 0.186666,-0.326666 h 1.278666 c 0.653334,0 1.151111,0.127555 1.493333,0.382666 0.348445,0.248889 0.522667,0.612889 0.522667,1.092 v 2.753332 c 0,0.261333 0.02178,0.466667 0.06533,0.616 0.04978,0.143111 0.09645,0.252 0.14,0.326666 0.04978,0.06844 0.07467,0.121334 0.07467,0.158667 0,0.04355 -0.028,0.09644 -0.084,0.158667 -0.056,0.056 -0.121333,0.102667 -0.196,0.14 -0.06844,0.04355 -0.133778,0.06533 -0.196,0.06533 -0.09956,0 -0.192889,-0.06222 -0.28,-0.186667 -0.08089,-0.130667 -0.146222,-0.298666 -0.196,-0.503999 -0.04978,-0.211556 -0.07467,-0.438667 -0.07467,-0.681334 v -1.250666 l -1.558666,0.158667 c -0.323555,0.03111 -0.538222,0.102669 -0.644,0.214666 -0.105777,0.112 -0.158666,0.314222 -0.158666,0.606667 v 0.07467 c 0,0.317333 0.056,0.53511 0.168,0.653333 0.118222,0.112 0.329778,0.168 0.634666,0.168 h 1.092 c 0.124444,0 0.186666,0.108889 0.186666,0.326666 0,0.217778 -0.274661,0.238672 -0.186666,0.326667 z"
     id="text2"
     style="font-size:9.33333px;font-family:Offside;-inkscape-font-specification:Offside;white-space:pre;fill:#830000;stroke-width:2.50205;paint-order:markers stroke fill"
     transform="matrix(0.93110495,0,0,0.93110495,-19.400868,44.17501)"
     aria-label="c ina"
     sodipodi:nodetypes="ssssssssscscsscscsssssssscsccsccsccsssscssssssssssssssssssscscscscsscsccsssssscssccsccsccsccssscssssc" /><path
     d="m 24.312395,-65.521987 c 0,0.143111 -0.124444,0.214666 -0.373333,0.214666 -0.248889,0 -0.373333,-0.07156 -0.373333,-0.214666 v -7.083998 c 0,-0.143111 0.124444,-0.214666 0.373333,-0.214666 0.248889,0 0.373333,0.07156 0.373333,0.214666 v 4.031999 h 0.718667 c 0.211555,0 0.370222,-0.0093 0.475999,-0.028 0.105778,-0.02489 0.186667,-0.07155 0.242667,-0.14 0.056,-0.07467 0.112,-0.186667 0.168,-0.336 l 0.625333,-1.707999 c 0.03111,-0.08089 0.07156,-0.136889 0.121333,-0.168 0.056,-0.03111 0.136889,-0.04667 0.242667,-0.04667 0.236445,0 0.354667,0.056 0.354667,0.168 0,0.01245 -0.0062,0.03422 -0.01867,0.06533 -0.0062,0.02489 -0.02487,0.08089 -0.056,0.168 l -0.625333,1.782666 c -0.056,0.161778 -0.133778,0.283111 -0.233333,0.364 0.167999,0.06222 0.295555,0.152442 0.382666,0.270667 0.08711,0.118222 0.161778,0.286222 0.224,0.503999 l 0.625333,2.184 c 0.01245,0.124444 -0.105775,0.186666 -0.354666,0.186666 -0.211556,0 -0.332889,-0.07156 -0.364,-0.214666 l -0.550667,-1.894666 c -0.04355,-0.149333 -0.09333,-0.258222 -0.149333,-0.326667 -0.04978,-0.07467 -0.130669,-0.121333 -0.242667,-0.14 -0.105777,-0.02489 -0.270666,-0.03733 -0.494666,-0.03733 h -1.092 z m 10.790332,-5.263998 v 4.339998 c 0,0.168 0.02178,0.304889 0.06533,0.410667 0.04978,0.105777 0.09645,0.192888 0.14,0.261333 0.04978,0.06222 0.07467,0.111998 0.07467,0.149333 0,0.04355 -0.028,0.09644 -0.084,0.158667 -0.056,0.056 -0.121333,0.102667 -0.196,0.14 -0.06844,0.04355 -0.133777,0.06533 -0.196,0.06533 -0.08711,0 -0.174221,-0.05289 -0.261333,-0.158667 -0.08711,-0.112 -0.158667,-0.252 -0.214667,-0.419999 -0.04978,-0.168 -0.07467,-0.339111 -0.07467,-0.513334 v -4.433331 c 0,-0.143111 0.124445,-0.214667 0.373333,-0.214667 0.248889,0 0.258844,0.1288 0.373333,0.214667 z m 0.028,-1.176 c 0,0.155555 -0.133777,0.233333 -0.401333,0.233333 -0.273777,0 -0.410666,-0.07778 -0.410666,-0.233333 v -0.812 c 0,-0.155555 0.133778,-0.233333 0.401333,-0.233333 0.273778,0 0.410666,0.07778 0.410666,0.233333 z m 6.066657,2.342666 v 4.097332 c 0,0.143111 -0.124444,0.214666 -0.373333,0.214666 -0.248888,0 -0.373333,-0.07156 -0.373333,-0.214666 v -4.190666 c 0,-0.236444 -0.108889,-0.416888 -0.326667,-0.541333 -0.217777,-0.124444 -0.53511,-0.186666 -0.951999,-0.186666 -0.846222,0 -1.269333,0.242666 -1.269333,0.727999 v 4.190666 c 0,0.143111 -0.124444,0.214666 -0.373333,0.214666 -0.248889,0 -0.373334,-0.07156 -0.373334,-0.214666 v -4.097332 c 0,-0.479111 0.171112,-0.843111 0.513334,-1.092 0.348444,-0.255111 0.849333,-0.382666 1.502666,-0.382666 0.653333,0 1.154222,0.127555 1.502666,0.382666 0.348444,0.248889 0.522666,0.612889 0.522666,1.092 z m 4.414665,4.265332 h -1.092 c -0.553777,0 -0.951999,-0.112 -1.194666,-0.336 -0.236444,-0.230222 -0.354667,-0.609777 -0.354667,-1.138666 v -0.07467 c 0,-0.342222 0.04356,-0.612889 0.130667,-0.812 0.08711,-0.205333 0.239555,-0.357778 0.457333,-0.457333 0.217778,-0.09955 0.519556,-0.168 0.905333,-0.205333 l 1.614666,-0.158667 v -1.036 c 0,-0.485333 -0.423111,-0.727999 -1.269333,-0.727999 h -1.278666 c -0.124444,0 -0.186667,-0.108889 -0.186667,-0.326667 0,-0.217777 0.06222,-0.326666 0.186667,-0.326666 h 1.278666 c 0.653334,0 1.151111,0.127555 1.493333,0.382666 0.348445,0.248889 0.522667,0.612889 0.522667,1.092 v 2.753332 c 0,0.261333 0.02178,0.466667 0.06533,0.616 0.04978,0.143111 0.09645,0.252 0.14,0.326666 0.04978,0.06844 0.07467,0.121334 0.07467,0.158667 0,0.04355 -0.028,0.09644 -0.084,0.158667 -0.056,0.056 -0.121333,0.102667 -0.195999,0.14 -0.06844,0.04355 -0.133778,0.06533 -0.196,0.06533 -0.09956,0 -0.192889,-0.06222 -0.28,-0.186667 -0.08089,-0.130667 -0.146222,-0.298666 -0.196,-0.503999 -0.04978,-0.211556 -0.07467,-0.438667 -0.07467,-0.681334 v -1.250666 l -1.558666,0.158667 c -0.323555,0.03111 -0.538222,0.102669 -0.644,0.214666 -0.105777,0.112 -0.158666,0.314222 -0.158666,0.606667 v 0.07467 c 0,0.317333 0.056,0.53511 0.168,0.653333 0.118222,0.112 0.329778,0.168 0.634666,0.168 h 1.092 c 0.124444,0 0.186666,0.108889 0.186666,0.326666 0,0.217778 -0.255695,0.223123 -0.186666,0.326667 z"
     id="text3"
     style="font-size:9.33333px;font-family:Offside;-inkscape-font-specification:Offside;white-space:pre;fill:#830000;stroke-width:2.50205;paint-order:markers stroke fill"
     transform="matrix(0.93110495,0,0,0.93110495,-19.721125,34.041852)"
     aria-label="koina"
     sodipodi:nodetypes="sssssscscccccssccccsccsccccscscsccsccsccsssscssssssssssssssssssscscscscsscsccsssssscssccsccsccsccssscssssc" /><path
     d="m 4.0286258,-38.101706 c -0.4287217,0 -0.7444697,-0.0869 -0.9472429,-0.26071 -0.1969808,-0.173806 -0.3360255,-0.483761 -0.417135,-0.929863 l -0.9559347,-5.240257 c -0.017384,-0.115871 0.092701,-0.173806 0.3302322,-0.173806 0.2201541,0 0.3418188,0.06662 0.3649931,0.199877 l 0.9385529,5.118593 c 0.04635,0.260709 0.1158732,0.440309 0.2085675,0.538799 0.09849,0.0927 0.2578127,0.139045 0.4779669,0.139045 0.2201551,0 0.3765807,-0.04635 0.4692769,-0.139045 0.09849,-0.09269 0.1709099,-0.272297 0.2172584,-0.538799 l 0.9385529,-5.118593 c 0.028967,-0.133252 0.1506341,-0.199877 0.3649931,-0.199877 0.2317418,0 0.3418189,0.05793 0.3302322,0.173806 l -0.9559347,5.240257 c -0.052142,0.301264 -0.1303547,0.538799 -0.2346385,0.712605 -0.1042837,0.173806 -0.2462251,0.29547 -0.425825,0.364993 -0.1795999,0.07532 -0.4142384,0.112975 -0.7039153,0.112975 z m 4.0670627,-0.0869 c -0.2317418,0 -0.3476123,-0.06663 -0.3476123,-0.199877 v -5.031689 c 0,-0.446103 0.1767033,-0.785025 0.5301088,-1.016767 0.3534056,-0.237535 0.8632377,-0.356303 1.5294945,-0.356303 0.6430835,0 1.1297405,0.115871 1.4599725,0.347613 0.336026,0.231742 0.504038,0.573561 0.504038,1.025457 v 5.031689 c 0,0.133251 -0.115871,0.199877 -0.347612,0.199877 -0.231742,0 -0.347613,-0.06663 -0.347613,-0.199877 v -2.355078 H 8.4433007 v 2.355074 c 0,0.133252 -0.1158705,0.199877 -0.3476122,0.199877 z m 0.3476122,-5.31847 v 2.155197 h 2.6331643 v -2.155197 c 0,-0.220154 -0.112974,-0.388166 -0.338923,-0.504038 -0.220154,-0.11587 -0.544592,-0.173805 -0.9733135,-0.173805 -0.4287226,0 -0.7560572,0.05793 -0.9820056,0.173805 -0.2259485,0.115872 -0.3389222,0.283884 -0.3389222,0.504038 z m 12.5488163,4.666697 h 1.40783 c 0.115871,0 0.173806,0.101387 0.173806,0.304161 0,0.202774 -0.05793,0.304161 -0.173806,0.304161 h -1.40783 c -0.492451,0 -0.845857,-0.118768 -1.060218,-0.356303 -0.208567,-0.237535 -0.312851,-0.628599 -0.312851,-1.173192 v -4.74491 c 0,-0.133251 0.11587,-0.199876 0.347612,-0.199876 0.231742,0 0.347612,0.06663 0.347612,0.199876 v 4.74491 c 0,0.336026 0.04925,0.573561 0.147736,0.712606 0.104284,0.139044 0.280987,0.208567 0.530109,0.208567 z m 1.32092,-5.822508 h 3.64993 c 0.115871,0 0.173806,0.101387 0.173806,0.304161 0,0.202773 -0.05793,0.30416 -0.173806,0.30416 h -1.477353 v 5.666083 c 0,0.133251 -0.11587,0.199877 -0.347612,0.199877 -0.231742,0 -0.347612,-0.06663 -0.347612,-0.199877 v -5.666083 h -1.477353 c -0.115871,0 -0.173806,-0.101387 -0.173806,-0.30416 0,-0.202774 0.05793,-0.304161 0.173806,-0.304161 z"
     id="text4"
     style="font-size:9.33333px;font-family:Offside;-inkscape-font-specification:Offside;white-space:pre;fill:#830000;stroke-width:2.32967;paint-order:markers stroke fill"
     aria-label="VAULT"
     sodipodi:nodetypes="scccscccscccsccscsssscscssssccssssccscsssssssscssssscssssscssscsss" /><path
     style="fill:#ff7f2a;fill-opacity:1;stroke-width:0.0511317"
     d="m 8.6390727,-52.469233 c -0.846265,0.08022 -0.973167,-0.03672 -1.420034,-0.50275 -0.108748,-0.113404 -0.304728,-0.262221 -0.349291,-0.35459 -0.101329,-0.210047 -0.07488,-0.346419 0.119513,-0.615834 0.109193,-0.151342 0.141547,-0.225368 0.14171,-0.324209 1.96e-4,-0.123306 -0.0456,-0.201689 -0.220319,-0.376936 -0.08046,-0.08071 -0.167609,-0.178848 -0.193652,-0.218067 -0.142619,-0.214804 -0.166134,-0.538538 -0.05314,-0.731375 0.0462,-0.07884 0.156137,-0.18127 0.254254,-0.236897 0.05639,-0.03196 0.09301,-0.0637 0.110243,-0.09551 0.05084,-0.09392 0.0036,-0.160005 -0.218559,-0.306132 -0.186959,-0.122937 -0.227484,-0.173973 -0.215889,-0.271873 0.02096,-0.177013 0.232164,-0.475887 0.336284,-0.475887 0.02123,0 0.02503,0.01107 0.02503,0.07223 0,0.09405 0.04387,0.26378 0.09018,0.348875 0.07578,0.139257 0.201367,0.209605 0.307683,0.17237 0.08928,-0.03127 0.109569,-0.0734 0.108793,-0.225868 -8.07e-4,-0.168769 -0.02786,-0.238756 -0.177069,-0.45869 -0.156122,-0.230128 -0.172412,-0.264369 -0.173285,-0.364305 -9.95e-4,-0.123671 0.03469,-0.165766 0.303668,-0.357502 0.386528,-0.275519 0.482601,-0.392447 0.471082,-0.573336 -0.0064,-0.100553 -0.05582,-0.208688 -0.195016,-0.426619 -0.117734,-0.184346 -0.167813,-0.291055 -0.167825,-0.357617 -1.5e-5,-0.07543 0.04587,-0.163308 0.09617,-0.184142 0.05315,-0.02201 0.09197,-0.0025 0.227133,0.114447 0.130711,0.113063 0.262723,0.187365 0.444907,0.250436 0.158848,0.05499 0.23401,0.09979 0.323075,0.192573 0.131085,0.136553 0.165268,0.309211 0.09185,0.463931 -0.03294,0.06941 -0.104879,0.146604 -0.207526,0.222704 -0.100066,0.07417 -0.141544,0.121265 -0.191689,0.217614 -0.04497,0.08642 -0.04586,0.248981 -0.0018,0.34498 0.03376,0.07365 0.1099,0.160193 0.167654,0.190516 0.158745,0.08333 0.420493,-0.119031 0.421399,-0.325803 1.62e-4,-0.03718 -0.0045,-0.0991 -0.01085,-0.137533 -0.01027,-0.0645 -0.0082,-0.07258 0.02393,-0.104844 0.04607,-0.04604 0.0936,-0.04467 0.194348,0.0057 0.183396,0.09165 0.37049,0.298721 0.415799,0.460213 0.03143,0.112058 0.02649,0.18835 -0.0213,0.328912 -0.05142,0.151159 -0.0471,0.202498 0.02288,0.272469 0.07789,0.07791 0.25919,0.11296 0.36199,0.07001 0.06016,-0.02512 0.1270173,-0.105131 0.1456313,-0.174252 0.009,-0.03313 0.0132,-0.115102 0.01005,-0.192961 -0.0048,-0.120847 -0.01323,-0.157782 -0.07779,-0.344456 -0.08568,-0.247705 -0.09604,-0.351764 -0.04342,-0.436864 0.06304,-0.10199 0.1434933,-0.127227 0.4570693,-0.143364 0.176487,-0.0092 0.226652,-0.01618 0.262392,-0.0371 0.0716,-0.04194 0.09722,-0.08794 0.106728,-0.191675 0.01085,-0.117842 0.03956,-0.16567 0.09957,-0.165599 0.106523,1.23e-4 0.198188,0.124213 0.209599,0.283716 0.01149,0.161508 -0.04522,0.295407 -0.232519,0.548241 -0.146562,0.197856 -0.165808,0.231056 -0.191044,0.329557 -0.04381,0.17096 0.0079,0.287471 0.280736,0.631055 0.380893,0.479898 0.453683,0.628676 0.468835,0.958267 0.0083,0.183719 0.0093,0.187825 0.04657,0.219837 0.0465,0.03998 0.11463,0.04275 0.160646,0.0065 0.03405,-0.02678 0.05705,-0.07156 0.106545,-0.207486 0.02064,-0.0567 0.039,-0.08347 0.06726,-0.09809 0.05884,-0.03045 0.105187,-0.02485 0.14784,0.0178 0.03145,0.03146 0.03952,0.05395 0.04738,0.132313 0.01186,0.118735 -0.01142,0.333583 -0.04805,0.442341 -0.03657,0.108576 -0.07565,0.173103 -0.169714,0.280331 -0.143706,0.163804 -0.188969,0.312533 -0.181161,0.595259 0.259149,0.891406 -0.276944,1.756442 -1.52127,1.854596 -0.5029023,0.03967 -1.0461173,-0.05862 -1.3942203,-0.0095 z m 0.733731,-0.715332 c 0.03355,-0.02349 0.05002,-0.07044 0.07118,-0.202885 0.03061,-0.191584 0.04508,-0.209695 0.167751,-0.209695 0.06332,0 0.07828,0.005 0.101124,0.03406 0.01474,0.01875 0.03108,0.06591 0.03631,0.104844 0.01235,0.09192 0.03806,0.152912 0.07211,0.171147 0.01501,0.0079 0.06694,0.01461 0.115385,0.01461 0.1236653,0 0.1456433,-0.02247 0.1919563,-0.196162 0.06324,-0.237125 0.102117,-0.282405 0.292218,-0.340137 0.187825,-0.05704 0.282397,-0.129685 0.354774,-0.272515 0.06722,-0.132644 0.08202,-0.220005 0.08081,-0.476401 -0.004,-0.830211 -0.294015,-1.427078 -0.823415,-1.694435 -0.1012153,-0.05111 -0.2823643,-0.111521 -0.4193863,-0.139849 -0.167153,-0.03456 -0.592556,-0.0352 -0.777236,-0.0011 -0.253754,0.04677 -0.993916,0.265464 -1.202351,1.240063 -0.06305,0.294823 -0.08247,0.731352 -0.03953,0.889298 0.06381,0.234813 0.203816,0.382104 0.435894,0.458554 0.14936,0.04922 0.206464,0.107995 0.248673,0.256032 0.07522,0.263818 0.08474,0.276026 0.215667,0.276392 0.128848,3.55e-4 0.164184,-0.03623 0.186178,-0.192742 0.005,-0.03544 0.02097,-0.07957 0.03553,-0.09809 0.02247,-0.02857 0.03774,-0.03367 0.100792,-0.03367 0.122652,0 0.137145,0.0181 0.167751,0.209694 0.03373,0.211262 0.04604,0.223223 0.229472,0.223223 0.09313,0 0.137382,-0.0057 0.158299,-0.02033 z m -0.31387,-0.961519 c -0.111349,-0.05806 -0.102824,-0.17677 0.02205,-0.307105 0.09739,-0.101648 0.169626,-0.101648 0.267017,0 0.06621,0.0691 0.114288,0.164234 0.102094,0.20201 -0.03275,0.101386 -0.07989,0.126453 -0.237636,0.126337 -0.07599,-5.3e-5 -0.126226,-0.007 -0.153527,-0.02124 z m -0.732102,-0.378558 c -0.07406,-0.02731 -0.159243,-0.101991 -0.204855,-0.1796 -0.03343,-0.05685 -0.03712,-0.0759 -0.03712,-0.191646 0,-0.10739 0.005,-0.139082 0.03165,-0.192784 0.04399,-0.08936 0.130815,-0.174157 0.225896,-0.220676 0.06764,-0.0331 0.09676,-0.03931 0.182059,-0.03889 0.209776,0.0011 0.358212,0.124424 0.393996,0.327582 0.03266,0.185354 -0.07084,0.379853 -0.251866,0.473284 -0.08479,0.04376 -0.252396,0.05499 -0.339769,0.02275 z m 1.446817,-0.01844 c -0.195935,-0.0927 -0.30311,-0.294507 -0.261878,-0.493125 0.04345,-0.209294 0.251744,-0.348995 0.458458,-0.307481 0.2175123,0.04368 0.3638633,0.204717 0.3776943,0.415599 0.009,0.135771 -0.02146,0.220732 -0.110814,0.310084 -0.122084,0.122082 -0.3022263,0.151203 -0.4634653,0.07492 z m 1.9658493,-1.759968 c -0.06958,-0.04413 -0.116322,-0.122924 -0.116286,-0.195993 3e-5,-0.05141 0.04738,-0.167075 0.111955,-0.27334 0.02755,-0.04534 0.05545,-0.1111 0.06199,-0.146106 0.0065,-0.035 0.02132,-0.07309 0.03285,-0.08462 0.05581,-0.05581 0.188315,0.0067 0.239982,0.113656 0.06019,0.124344 0.04662,0.372668 -0.0284,0.519741 -0.05752,0.112753 -0.185013,0.140885 -0.302064,0.06664 z m -4.9544773,-1.879882 c -0.0435,-0.01761 -0.09831,-0.09066 -0.108406,-0.144553 -0.02348,-0.125188 0.02901,-0.360131 0.102915,-0.460638 0.117782,-0.160163 0.340905,-0.160873 0.296748,-9.95e-4 -0.01,0.0358 -0.0064,0.08158 0.01408,0.185562 0.04305,0.218433 0.03314,0.292922 -0.04892,0.367575 -0.06487,0.059 -0.181822,0.08317 -0.256431,0.05299 z m 3.2859723,-0.345851 c -0.1821153,-0.09076 -0.1900073,-0.244279 -0.02635,-0.512532 0.02687,-0.04403 0.05235,-0.101877 0.05666,-0.128521 0.01534,-0.09524 0.02701,-0.109353 0.09035,-0.10925 0.06772,10e-5 0.121034,0.03119 0.164867,0.09614 0.05419,0.08026 0.06631,0.140472 0.05809,0.288315 -0.01162,0.209411 -0.0689,0.340469 -0.16653,0.381272 -0.06388,0.0267 -0.09868,0.02367 -0.177104,-0.0154 z"
     id="path4" /><path
     d="m 24.219062,-69.712653 v 3.117333 c 0,0.236444 0.102667,0.416888 0.308,0.541333 0.205333,0.124445 0.500889,0.186667 0.886666,0.186667 0.796444,0 1.194666,-0.242667 1.194666,-0.728 v -0.392 c 0,-0.143111 0.124445,-0.214667 0.373334,-0.214667 0.248889,0 0.373333,0.07156 0.373333,0.214667 v 0.298666 c 0,0.479111 -0.168,0.846222 -0.504,1.101333 -0.329777,0.248889 -0.808888,0.373334 -1.437333,0.373334 -0.628444,0 -1.110666,-0.127556 -1.446666,-0.382667 -0.329777,-0.255111 -0.494666,-0.619111 -0.494666,-1.092 v -2.930665 c 0,-0.479111 0.164889,-0.843111 0.494666,-1.092 0.336,-0.255111 0.818222,-0.382666 1.446666,-0.382666 0.628445,0 1.107556,0.127555 1.437333,0.382666 0.336,0.248889 0.504,0.612889 0.504,1.092 v 0.298666 c 0,0.143111 -0.124444,0.214667 -0.373333,0.214667 -0.248889,0 -0.373334,-0.07156 -0.373334,-0.214667 v -0.392 c 0,-0.485333 -0.398222,-0.727999 -1.194666,-0.727999 -0.385777,0 -0.681333,0.06222 -0.886666,0.186666 -0.205333,0.124445 -0.308,0.304889 -0.308,0.541333 z m 11.563996,-1.073336 v 4.339998 c 0,0.168 0.02178,0.304889 0.06533,0.410667 0.04978,0.105777 0.09645,0.192888 0.14,0.261333 0.04978,0.06222 0.07467,0.111998 0.07467,0.149333 0,0.04355 -0.028,0.09644 -0.084,0.158667 -0.056,0.056 -0.121333,0.102667 -0.196,0.14 -0.06844,0.04355 -0.133777,0.06533 -0.196,0.06533 -0.08711,0 -0.174222,-0.05289 -0.261333,-0.158667 -0.08711,-0.112 -0.158666,-0.252 -0.214666,-0.419999 -0.04978,-0.168 -0.07467,-0.339111 -0.07467,-0.513334 v -4.433331 c 0,-0.143111 0.124444,-0.214667 0.373333,-0.214667 0.248889,0 0.373333,0.07156 0.373333,0.214667 z m 0.028,-1.176 c 0,0.155555 -0.133778,0.233333 -0.401333,0.233333 -0.273777,0 -0.410666,-0.07778 -0.410666,-0.233333 v -0.812 c 0,-0.155555 0.133778,-0.233333 0.401333,-0.233333 0.273777,0 0.410666,0.07778 0.410666,0.233333 z m 6.066658,2.342666 v 4.097332 c 0,0.143111 -0.124444,0.214666 -0.373333,0.214666 -0.248889,0 -0.373333,-0.07155 -0.373333,-0.214666 v -4.190666 c 0,-0.236444 -0.108889,-0.416888 -0.326667,-0.541333 -0.217777,-0.124444 -0.53511,-0.186666 -0.951999,-0.186666 -0.846222,0 -1.269333,0.242666 -1.269333,0.727999 v 4.190666 c 0,0.143111 -0.124444,0.214666 -0.373333,0.214666 -0.248889,0 -0.373334,-0.07155 -0.373334,-0.214666 v -4.097332 c 0,-0.479111 0.171111,-0.843111 0.513334,-1.092 0.348444,-0.255111 0.849333,-0.382666 1.502666,-0.382666 0.653333,0 1.154221,0.127555 1.502666,0.382666 0.348444,0.248889 0.522666,0.612889 0.522666,1.092 z m 1.866665,4.265332 c -0.124445,0 -0.186667,-0.108889 -0.186667,-0.326667 v -0.326666 c 0,-0.118223 0.0062,-0.220889 0.01867,-0.308 0.01867,-0.08711 0.056,-0.174223 0.112,-0.261334 0.06222,-0.09333 0.152442,-0.208444 0.270666,-0.345333 0.124445,-0.136889 0.289334,-0.311111 0.494667,-0.522666 l 1.885332,-1.932 c 0.130667,-0.130667 0.224,-0.230222 0.28,-0.298666 0.056,-0.06844 0.09022,-0.130667 0.102667,-0.186667 0.01867,-0.06222 0.028,-0.139998 0.028,-0.233333 v -0.205333 H 44.01505 c -0.124445,0 -0.186667,-0.108889 -0.186667,-0.326667 0,-0.217777 0.06222,-0.326666 0.186667,-0.326666 h 3.294666 c 0.124444,0 0.186666,0.108889 0.186666,0.326666 v 0.513333 c 0,0.155556 -0.01867,0.289334 -0.056,0.401333 -0.03733,0.112 -0.121333,0.245778 -0.252,0.401334 -0.124444,0.149333 -0.320444,0.360889 -0.587999,0.634666 l -1.885333,1.931999 c -0.118222,0.124445 -0.208444,0.224 -0.270667,0.298667 -0.056,0.07467 -0.09333,0.143111 -0.112,0.205333 -0.01867,0.06222 -0.028,0.139998 -0.028,0.233334 h 3.014666 c 0.124445,0 0.186667,0.108889 0.186667,0.326666 0,0.217778 -0.06222,0.326667 -0.186667,0.326667 z m 7.895996,0 h -1.091999 c -0.553778,0 -0.952,-0.112 -1.194667,-0.336 -0.236444,-0.230222 -0.354666,-0.609777 -0.354666,-1.138666 v -0.07467 c 0,-0.342222 0.04355,-0.612889 0.130666,-0.812 0.08711,-0.205333 0.239556,-0.357778 0.457334,-0.457333 0.217777,-0.09956 0.519555,-0.168 0.905333,-0.205333 l 1.614666,-0.158667 v -1.036 c 0,-0.485333 -0.423111,-0.727999 -1.269333,-0.727999 h -1.278666 c -0.124445,0 -0.186667,-0.108889 -0.186667,-0.326667 0,-0.217777 0.06222,-0.326666 0.186667,-0.326666 h 1.278666 c 0.653333,0 1.151111,0.127555 1.493333,0.382666 0.348444,0.248889 0.522666,0.612889 0.522666,1.092 v 2.753332 c 0,0.261333 0.02178,0.466667 0.06533,0.616 0.04978,0.143111 0.09645,0.252 0.139999,0.326666 0.04978,0.06844 0.07467,0.121334 0.07467,0.158667 0,0.04355 -0.028,0.09644 -0.084,0.158667 -0.056,0.056 -0.121333,0.102667 -0.196,0.14 -0.06844,0.04355 -0.133777,0.06533 -0.196,0.06533 -0.09955,0 -0.192889,-0.06222 -0.28,-0.186667 -0.08089,-0.130667 -0.146222,-0.298666 -0.196,-0.503999 -0.04978,-0.211556 -0.07467,-0.438667 -0.07467,-0.681334 v -1.250666 l -1.558666,0.158667 c -0.323555,0.03111 -0.538222,0.102669 -0.644,0.214666 -0.105778,0.112 -0.158667,0.314222 -0.158667,0.606667 v 0.07467 c 0,0.317333 0.056,0.53511 0.168,0.653333 0.118223,0.112 0.329778,0.168 0.634667,0.168 h 1.091999 c 0.124445,0 0.186667,0.108889 0.186667,0.326666 0,0.217778 -0.06222,0.326667 -0.186667,0.326667 z"
     id="text5"
     style="font-size:9.33333px;font-family:Offside;-inkscape-font-specification:Offside;white-space:pre;fill:#830000;stroke-width:2.50205;paint-order:markers stroke fill"
     transform="matrix(0.93110495,0,0,0.93110495,-19.721125,8.2789739)"
     aria-label="coinza"
     sodipodi:nodetypes="ssssssssscscsscscsssssssscsccsccsccsssscssssssssssssssssssscscsssscccccscscsssssssccccscsssscscsscsccsssssscssccsccsccsccssscssssc" /></svg>
