<?xml version="1.0" encoding="UTF-8" standalone="no"?>
<!-- Created with Inkscape (http://www.inkscape.org/) -->

<svg
   width="30.649841mm"
   height="6.522274mm"
   viewBox="0 0 30.649841 6.5222741"
   version="1.1"
   id="svg1"
   xml:space="preserve"
   sodipodi:docname="logo.svg"
   inkscape:export-filename="ico.svg"
   inkscape:export-xdpi="96"
   inkscape:export-ydpi="96"
   xmlns:inkscape="http://www.inkscape.org/namespaces/inkscape"
   xmlns:sodipodi="http://sodipodi.sourceforge.net/DTD/sodipodi-0.dtd"
   xmlns="http://www.w3.org/2000/svg"
   xmlns:svg="http://www.w3.org/2000/svg"><sodipodi:namedview
     id="namedview1"
     pagecolor="#ffffff"
     bordercolor="#000000"
     borderopacity="0.25"
     inkscape:showpageshadow="2"
     inkscape:pageopacity="0.0"
     inkscape:pagecheckerboard="0"
     inkscape:deskcolor="#d1d1d1"
     inkscape:document-units="mm"
     showguides="true" /><defs
     id="defs1" /><path
     style="font-size:2.46944px;font-family:Offside;-inkscape-font-specification:Offside;fill:#ffd000;fill-opacity:1;stroke-width:1.36166;paint-order:markers stroke fill"
     d="m 14.674756,2.5763947 v 1.6965067 c 0,0.1286769 0.05587,0.2268787 0.167616,0.2946031 0.111751,0.067725 0.272593,0.1015877 0.482539,0.1015877 0.43344,0 0.650158,-0.1320625 0.650158,-0.3961904 v -0.213333 c 0,-0.077884 0.06773,-0.1168251 0.203179,-0.1168251 0.135447,0 0.20318,0.038941 0.20318,0.1168251 v 0.1625394 c 0,0.2607406 -0.09143,0.4605288 -0.274284,0.5993649 -0.179464,0.1354502 -0.440211,0.2031753 -0.782222,0.2031753 -0.342012,0 -0.604443,-0.069418 -0.787301,-0.208254 C 14.358157,4.6775586 14.268414,4.4794628 14.268414,4.2221084 V 2.6271889 c 0,-0.2607406 0.08974,-0.4588358 0.269205,-0.5942854 0.182857,-0.1388358 0.445291,-0.2082538 0.787303,-0.2082538 0.342009,0 0.60275,0.069418 0.78222,0.2082538 0.182857,0.1354502 0.274286,0.3335454 0.274286,0.5942854 v 0.1625394 c 0,0.077884 -0.06773,0.1168251 -0.20318,0.1168251 -0.135445,0 -0.203179,-0.038941 -0.203179,-0.1168251 V 2.5763952 c 0,-0.2641268 -0.21672,-0.3961901 -0.650158,-0.3961901 -0.209946,0 -0.370792,0.033863 -0.482539,0.1015876 -0.111751,0.067725 -0.167616,0.1659251 -0.167616,0.294602 z"
     id="text2"
     aria-label="{coinza}"
     sodipodi:nodetypes="csssssssscscsscscsssssssc" /><path
     style="font-size:2.46944px;font-family:Offside;-inkscape-font-specification:Offside;fill:#eaeaea;fill-opacity:1;stroke-width:1.36166;paint-order:markers stroke fill"
     d="m 13.096467,2.7253882 c 0,0.3420103 -0.115124,0.5502641 -0.345397,0.6247615 0.230265,0.091429 0.345397,0.2996825 0.345397,0.6247614 v 1.0158725 c 0,0.1625394 0.03725,0.2776718 0.111751,0.3453967 0.0745,0.067725 0.199785,0.1015877 0.375871,0.1015877 0.06773,0 0.10159,0.059259 0.10159,0.1777768 0,0.1185179 -0.03386,0.1777769 -0.10159,0.1777769 -0.311534,0 -0.538411,-0.064339 -0.680635,-0.1930163 C 12.761241,5.4750141 12.690123,5.2718402 12.690123,4.9907819 V 3.9749095 c 0,-0.1489948 -0.01687,-0.2539679 -0.05078,-0.3149202 -0.03049,-0.064337 -0.09482,-0.108359 -0.193019,-0.1320625 l -0.07619,-0.020322 c -0.06773,-0.013555 -0.10159,-0.066035 -0.10159,-0.157461 0,-0.084655 0.03386,-0.137143 0.10159,-0.157461 l 0.07619,-0.020322 c 0.09482,-0.023704 0.159162,-0.066032 0.193018,-0.1269839 0.03386,-0.064337 0.05078,-0.1710056 0.05078,-0.3199999 V 1.8212505 c 0,-0.2810579 0.07111,-0.4842324 0.213332,-0.6095234 0.142214,-0.1286769 0.369101,-0.1930163 0.680634,-0.1930163 0.06773,0 0.10159,0.059259 0.10159,0.1777768 0,0.1185179 -0.03386,0.1777768 -0.10159,0.1777768 -0.176089,0 -0.301374,0.033863 -0.375871,0.1015877 -0.0745,0.067725 -0.11175,0.1828574 -0.11175,0.3453966 z m 4.456908,-1.4e-6 V 1.8212604 c 0,-0.1625394 -0.03725,-0.2776717 -0.111751,-0.3453966 -0.0711,-0.067725 -0.196412,-0.1015876 -0.375873,-0.1015876 -0.06773,0 -0.101589,-0.059259 -0.101589,-0.1777769 0,-0.1185179 0.03386,-0.1777768 0.101589,-0.1777768 0.311534,0 0.538413,0.064339 0.680634,0.1930163 0.142213,0.1252912 0.213335,0.3284651 0.213335,0.6095234 v 0.9041264 c 0,0.1489948 0.01687,0.2556614 0.05078,0.3199998 0.03387,0.060952 0.09822,0.1032804 0.193018,0.1269841 l 0.07619,0.020322 c 0.06773,0.020322 0.10159,0.072805 0.10159,0.157461 0,0.091429 -0.03386,0.1439163 -0.10159,0.1574609 l -0.07619,0.020322 c -0.0948,0.023704 -0.159142,0.067725 -0.193018,0.1320625 -0.03386,0.060952 -0.05078,0.1659251 -0.05078,0.3149202 v 1.0158727 c 0,0.2810581 -0.07111,0.4842325 -0.213335,0.6095234 -0.142213,0.1286769 -0.3691,0.1930163 -0.680634,0.1930163 -0.06773,0 -0.101589,-0.059259 -0.101589,-0.1777768 0,-0.1185179 0.03386,-0.1777769 0.101589,-0.1777769 0.179463,0 0.304763,-0.033863 0.375873,-0.1015877 0.0745,-0.067725 0.111751,-0.1828573 0.111751,-0.3453967 V 3.9749229 c 0,-0.1693128 0.02877,-0.3047617 0.08635,-0.4063489 0.05757,-0.1015877 0.149001,-0.1743912 0.274285,-0.2184126 -0.125284,-0.044022 -0.21672,-0.116825 -0.274285,-0.2184125 -0.05757,-0.1015877 -0.08635,-0.2370366 -0.08635,-0.406349 z"
     id="path2"
     aria-label="{coinza}"
     sodipodi:nodetypes="scsssssscsscccscccsscsssssscscssscsscccscccsscssscssscssc" /></svg>
