<?xml version="1.0" encoding="UTF-8" standalone="no"?>
<!-- Created with Inkscape (http://www.inkscape.org/) -->

<svg
   width="31.598667mm"
   height="8.8486996mm"
   viewBox="0 0 31.598667 8.8486997"
   version="1.1"
   id="svg1"
   xml:space="preserve"
   xmlns="http://www.w3.org/2000/svg"
   xmlns:svg="http://www.w3.org/2000/svg"><defs
     id="defs1" /><path
     d="m 27.543059,2.1756849 c -0.141174,0 -0.211259,0.1233278 -0.211259,0.3703878 0,0.24706 0.07008,0.3709356 0.211259,0.3709356 h 1.450822 c 0.960003,0 1.439847,0.2752371 1.439847,0.8258269 v 1.336688 l -1.831635,0.1799812 c -0.437648,0.042357 -0.780149,0.1197175 -1.027209,0.2326583 -0.24706,0.1129418 -0.419716,0.2861496 -0.518542,0.5190913 -0.09883,0.2258826 -0.148156,0.5330684 -0.148156,0.9213047 v 0.084501 c 0,0.6000016 0.133978,1.0305151 0.402215,1.2916924 0.275294,0.254118 0.727106,0.3813629 1.355343,0.3813629 h 0.915818 c 0.121052,-0.07263 0.211807,-0.1233277 0.211807,-0.3703877 0,-0.24706 -0.07063,-0.3709367 -0.211807,-0.3709367 h -0.915818 c -0.345884,0 -0.585805,-0.06335 -0.719923,-0.1904065 -0.127059,-0.1341178 -0.190955,-0.3813232 -0.190955,-0.741324 v -0.084501 c 0,-0.3317654 0.05998,-0.5615874 0.17998,-0.6886464 0.12,-0.127058 0.363838,-0.2077878 0.730898,-0.2430835 L 30.433728,5.820848 v 1.4184477 c 0,0.2752954 0.02859,0.5331491 0.08505,0.7731499 0.05647,0.2329418 0.130467,0.423533 0.222232,0.5717684 0.09882,0.1411741 0.204769,0.2118068 0.31771,0.2118068 0.07059,0 0.14458,-0.024667 0.222232,-0.074074 0.08471,-0.042346 0.158703,-0.095598 0.222234,-0.1591298 0.06353,-0.070591 0.09548,-0.1305727 0.09548,-0.1799802 0,-0.042357 -0.02803,-0.1023404 -0.0845,-0.1799813 -0.04942,-0.084703 -0.102659,-0.2080341 -0.15913,-0.3703877 -0.04941,-0.1694117 -0.07407,-0.4026009 -0.07407,-0.6990727 V 3.8487423 c 0,-0.5435307 -0.197873,-0.9566618 -0.593169,-1.2390154 C 30.29956,2.3203143 29.73507,2.1756881 28.993891,2.1756881 Z"
     style="font-size:9.9716px;font-family:Offside;-inkscape-font-specification:Offside;fill:#ffffff;stroke-width:1.79655"
     id="path63" /><path
     d="m 12.713834,2.1680025 c -0.282353,0 -0.423614,0.080732 -0.423614,0.2430834 v 5.1788426 c 0,0.1976482 0.02803,0.3916054 0.0845,0.5821945 0.06353,0.1905891 0.144807,0.3492327 0.243632,0.4762917 0.09883,0.1199957 0.197485,0.1799802 0.296311,0.1799802 0.07059,0 0.145128,-0.024667 0.222781,-0.074074 0.0847,-0.042346 0.158703,-0.095046 0.222233,-0.1585809 0.06353,-0.070591 0.09493,-0.1305738 0.09493,-0.1799813 0,-0.042346 -0.02803,-0.098964 -0.0845,-0.1695551 -0.04942,-0.077642 -0.102108,-0.1763095 -0.158582,-0.2963094 -0.04941,-0.120001 -0.07407,-0.2752763 -0.07407,-0.4658654 V 2.4110891 c 0,-0.165571 -0.117232,-0.2430834 -0.423614,-0.2430834 z"
     style="font-size:9.9716px;font-family:Offside;-inkscape-font-specification:Offside;fill:#ffffff;stroke-width:1.79655"
     id="path64" /><path
     d="m 12.70286,0.00768243 c -0.303531,0 -0.454891,0.0880161 -0.454891,0.26448377 v 0.9213047 c 0,0.1764676 0.155276,0.2650338 0.465865,0.2650338 0.303531,0 0.454891,-0.088568 0.454891,-0.2650338 V 0.2721662 c 0,-0.17646763 -0.155276,-0.26448377 -0.465865,-0.26448377 z"
     style="font-size:9.9716px;font-family:Offside;-inkscape-font-specification:Offside;fill:#ffffff;stroke-width:1.79655"
     id="path65" /><path
     d="m 25.157762,0.00438965 c -0.282354,0 -0.423614,0.0812841 -0.423614,0.24363344 V 7.2815471 c 0,0.5505898 -0.480392,0.8263759 -1.440396,0.8263759 -0.472942,0 -0.832825,-0.070634 -1.079885,-0.2118069 -0.24706,-0.1411773 -0.370388,-0.3463338 -0.370388,-0.614569 V 3.7395435 c 0,-0.5505888 0.479844,-0.8263759 1.439847,-0.8263759 h 0.573415 c 0.141174,0 0.211807,-0.1233277 0.211807,-0.3703877 0,-0.247059 -0.07063,-0.3703877 -0.211807,-0.3703877 h -0.573415 c -0.741179,0 -1.309584,0.1446282 -1.70488,0.4340398 -0.388236,0.2823546 -0.582194,0.6954836 -0.582194,1.2390144 v 3.3307457 c 0,0.5364716 0.197873,0.9490538 0.593168,1.2384664 0.395296,0.2894127 0.963153,0.4340399 1.704332,0.4340399 0.741179,0 1.306219,-0.1446272 1.694455,-0.4340399 0.395295,-0.2894126 0.592621,-0.7019948 0.592621,-1.2384664 V 0.24802309 c 0,-0.16235257 -0.140713,-0.24363344 -0.423066,-0.24363344 z"
     style="font-size:9.9716px;font-family:Offside;-inkscape-font-specification:Offside;fill:#ffffff;stroke-width:1.79655"
     id="path66" /><path
     d="M 0.42361383,0 C 0.14126033,0 1.2575081e-7,0.08128409 1.2575081e-7,0.24363237 V 8.5831167 c 0,0.1623515 0.14126020424919,0.2436324 0.42361370424919,0.2436324 0.2823535,0 0.4236136,-0.081284 0.4236136,-0.2436324 V 5.7780468 H 2.0862429 c 0.2541192,0 0.4407943,0.014569 0.5607942,0.042803 0.1270612,0.021173 0.2189891,0.073883 0.2754579,0.1585809 0.06353,0.077642 0.1201486,0.200976 0.1695561,0.3703877 l 0.6244453,2.2333005 c 0.035296,0.1623515 0.1731876,0.2436324 0.4131885,0.2436324 0.2823514,0 0.4163251,-0.070634 0.4022133,-0.2118068 L 3.8224003,6.0535058 C 3.751809,5.8064458 3.6671674,5.6158557 3.5683417,5.4817375 3.469516,5.3476214 3.3248909,5.2455922 3.1343019,5.1750009 3.2472469,5.0832364 3.3352566,4.9453434 3.3987867,4.7618134 L 4.1686439,2.6239907 c 0.035274,-0.098826 0.056543,-0.1621721 0.063647,-0.1904065 0.014165,-0.035296 0.021396,-0.059962 0.021396,-0.074074 0,-0.1270591 -0.1345259,-0.1904075 -0.4027623,-0.1904075 -0.1200031,0 -0.2113799,0.017382 -0.27491,0.052678 -0.056469,0.035296 -0.102436,0.099187 -0.1377295,0.1909554 L 2.6684279,4.4655062 C 2.6048979,4.634919 2.5415505,4.761617 2.4780204,4.8463202 2.4144904,4.9239621 2.3225624,4.9772146 2.2025625,5.005449 2.0825615,5.0265903 1.9026206,5.0372724 1.6626197,5.0372724 H 0.84721793 V 0.24363237 C 0.84721793,0.0812798 0.70595783,0 0.42360423,0 Z"
     style="font-size:9.9716px;font-family:Offside;-inkscape-font-specification:Offside;fill:#ffffff;stroke-width:1.79655"
     id="path67" /><path
     d="m 19.630518,3.8782544 v 4.7056581 q 0,0.2465298 -0.428769,0.2465298 -0.428757,0 -0.428757,-0.2465298 V 3.771068 q 0,-0.4073267 -0.375169,-0.6216995 -0.375159,-0.2143842 -1.093341,-0.2143842 -1.457783,0 -1.457783,0.8360837 v 4.8128445 q 0,0.2465298 -0.428757,0.2465298 -0.428768,0 -0.428768,-0.2465298 V 3.8782544 q 0,-0.8253571 0.589554,-1.2541256 0.600257,-0.4394722 1.725754,-0.4394722 1.125498,0 1.725767,0.4394722 0.600269,0.4287685 0.600269,1.2541256 z"
     id="text67"
     style="font-size:9.33333px;font-family:Offside;-inkscape-font-specification:Offside;white-space:pre;fill:#ffffff;stroke-width:1.81873"
     aria-label="n" /><path
     style="fill:#ff7f2a;fill-opacity:1;stroke-width:0.0565101"
     d="M 7.5934256,8.791429 C 6.6581468,8.8800928 6.5178955,8.7508454 6.024025,8.2357985 5.9038435,8.1104618 5.6872435,7.9459951 5.6379942,7.8439106 5.5260006,7.6117685 5.5552448,7.4610526 5.7700789,7.1632981 5.8907542,6.9960377 5.9265139,6.9142259 5.9266933,6.8049889 5.9269099,6.668712 5.8762983,6.5820847 5.6832011,6.3884046 5.5942824,6.2992098 5.4979605,6.1907437 5.4691793,6.1473982 5.3115593,5.910002 5.2855697,5.5522152 5.4104594,5.3390948 c 0.051064,-0.087124 0.17256,-0.2003368 0.2809965,-0.2618153 0.06232,-0.035327 0.102797,-0.0704 0.1218443,-0.1055578 0.056203,-0.1037951 0.00404,-0.176835 -0.241548,-0.3383328 C 5.3651261,4.4975208 5.3203387,4.4411178 5.3331551,4.3329193 5.3563139,4.1372875 5.5897388,3.8069769 5.7048096,3.8069769 c 0.023456,0 0.027661,0.01219 0.027661,0.079829 0,0.1039544 0.048473,0.2915247 0.099675,0.3855721 0.083758,0.1539024 0.2225473,0.2316505 0.3400466,0.1905009 C 6.2708588,4.4283163 6.2932818,4.3817545 6.292427,4.2132517 6.2915287,4.0267305 6.2616335,3.9493827 6.0967262,3.7063142 5.9241821,3.4519795 5.9061796,3.4141376 5.9052144,3.30369 5.9041568,3.1670096 5.9435469,3.1204871 6.2408246,2.9085836 6.6680092,2.6040843 6.7741871,2.474857 6.7614567,2.2749417 6.7543424,2.1638167 6.6997636,2.0443021 6.5459271,1.8034485 6.4158099,1.5997128 6.3604635,1.4817771 6.3604497,1.4082148 c -1.7e-5,-0.083365 0.050692,-0.1804857 0.1062883,-0.2035107 0.058741,-0.024327 0.1016396,-0.00276 0.2510239,0.1264857 0.1444605,0.1249597 0.2903566,0.2070731 0.4917047,0.2767767 0.175555,0.06078 0.258624,0.1102904 0.357057,0.2128304 0.144874,0.1509155 0.182653,0.341735 0.101523,0.5127309 -0.0364,0.076697 -0.115914,0.1620224 -0.229354,0.2461267 -0.110587,0.081985 -0.156433,0.1340215 -0.211851,0.2405042 -0.0497,0.095513 -0.05068,0.2751712 -0.002,0.3812673 0.03731,0.081401 0.121455,0.1770432 0.185289,0.210555 0.175442,0.092104 0.464722,-0.1315517 0.465724,-0.360072 1.79e-4,-0.041104 -0.0051,-0.1095248 -0.01194,-0.1519996 -0.01132,-0.071281 -0.0091,-0.080233 0.02645,-0.1158757 0.05091,-0.050894 0.103445,-0.049365 0.21479,0.00626 0.202687,0.1012892 0.409459,0.3301407 0.459536,0.5086195 0.03474,0.1238395 0.02928,0.2081625 -0.02354,0.3635091 -0.05683,0.1670597 -0.05206,0.2237982 0.02528,0.3011301 0.08609,0.086105 0.286453,0.1248461 0.400066,0.077376 0.06649,-0.027767 0.140377,-0.11619 0.160948,-0.19258 0.01,-0.036623 0.01458,-0.1272087 0.01108,-0.2132573 -0.0053,-0.1335586 -0.01462,-0.174379 -0.08598,-0.3806876 -0.09469,-0.273759 -0.106131,-0.388764 -0.048,-0.4828146 0.06967,-0.1127135 0.158585,-0.1406102 0.505145,-0.1584439 0.195051,-0.010194 0.250494,-0.017881 0.289992,-0.041008 0.07913,-0.04635 0.107444,-0.09719 0.117949,-0.2118387 0.01194,-0.1302372 0.04372,-0.1830946 0.1100494,-0.1830171 0.117722,1.359e-4 0.219034,0.1372782 0.231645,0.31356 0.0127,0.1784947 -0.04998,0.3264784 -0.256977,0.6059076 -0.1619784,0.2186674 -0.1832494,0.2553594 -0.2111384,0.3642206 -0.04841,0.1889432 0.0088,0.3177097 0.3102654,0.6974331 0.420958,0.5303756 0.501404,0.694803 0.51815,1.0590607 0.0092,0.2030456 0.0103,0.2075828 0.05147,0.2429624 0.05139,0.044183 0.126688,0.047252 0.177545,0.00722 0.03763,-0.029594 0.06304,-0.079086 0.117748,-0.2293113 0.02281,-0.06267 0.0431,-0.092253 0.07434,-0.1084035 0.06504,-0.03365 0.116252,-0.027459 0.163391,0.019676 0.03477,0.034775 0.04368,0.059633 0.05236,0.1462295 0.01311,0.1312247 -0.01256,0.3686718 -0.05311,0.4888682 -0.04042,0.1199956 -0.0836,0.1913132 -0.187565,0.3098181 -0.158821,0.1810335 -0.208846,0.3454078 -0.200216,0.6578731 0.286407,0.9851681 -0.306074,1.9411939 -1.6812874,2.0496718 -0.555799,0.043843 -1.156151,-0.064783 -1.54087,-0.01064 z m 0.810909,-0.7905727 c 0.03708,-0.025962 0.05528,-0.077865 0.07866,-0.2242272 0.03383,-0.2117346 0.04983,-0.2317504 0.185396,-0.2317504 0.06998,0 0.08652,0.00552 0.111764,0.037642 0.01629,0.020716 0.03435,0.072853 0.04013,0.1158757 0.01365,0.1015971 0.04205,0.1689965 0.07969,0.1891492 0.01659,0.00881 0.07398,0.016151 0.127522,0.016151 0.136672,0 0.160962,-0.024826 0.212147,-0.2167964 0.06988,-0.262066 0.112862,-0.3121074 0.322955,-0.3759125 0.207581,-0.063042 0.312101,-0.1433275 0.39209,-0.3011789 C 10.02897,6.8632118 10.04535,6.7666617 10.043999,6.4832951 10.039598,5.56576 9.7190596,4.9061104 9.1339736,4.6106325 9.0221176,4.5541425 8.8219086,4.4873823 8.6704746,4.4560739 8.4857396,4.4178689 8.0155906,4.4171789 7.8114846,4.4548039 7.5310406,4.5064949 6.7130229,4.74819 6.4826635,5.825302 c -0.069678,0.3258338 -0.091127,0.8082789 -0.043705,0.9828384 0.070517,0.2595122 0.225254,0.4222959 0.4817432,0.5067878 0.1650698,0.054398 0.2281819,0.1193564 0.2748289,0.282963 0.08312,0.2915682 0.09365,0.30506 0.238352,0.3054645 0.142402,3.918e-4 0.181455,-0.040042 0.205762,-0.2130162 0.0055,-0.039161 0.02317,-0.087953 0.03927,-0.1084036 0.02482,-0.031569 0.04171,-0.037207 0.111398,-0.037207 0.135553,0 0.15157,0.020005 0.185395,0.2317503 0.03729,0.2334854 0.05088,0.2467033 0.25361,0.2467033 0.102925,0 0.151832,-0.00626 0.174948,-0.022479 z M 8.0574506,6.9381992 c -0.123061,-0.064167 -0.113641,-0.1953642 0.02437,-0.3394085 0.107638,-0.1123355 0.187468,-0.1123355 0.295102,0 0.07317,0.076357 0.12631,0.1815093 0.112829,0.2232577 -0.03619,0.112051 -0.0883,0.1397555 -0.262631,0.139626 -0.08399,-5.74e-5 -0.139502,-0.00775 -0.169675,-0.023477 z M 7.2483416,6.5198225 C 7.1664946,6.4896449 7.0723483,6.4070984 7.0219395,6.3213301 6.9849873,6.2585009 6.9809205,6.2374446 6.9809205,6.1095254 c 0,-0.1186906 0.00563,-0.1537112 0.034977,-0.2130608 0.048622,-0.098751 0.1445741,-0.192476 0.2496561,-0.2438883 0.07475,-0.036581 0.10694,-0.04344 0.20121,-0.042983 0.231841,0.00117 0.395889,0.1375118 0.435439,0.3620406 0.03609,0.2048507 -0.0783,0.419808 -0.27836,0.5230658 -0.09371,0.048356 -0.278943,0.060769 -0.375507,0.025144 z m 1.599002,-0.020366 c -0.216545,-0.1024466 -0.334994,-0.3254856 -0.289424,-0.544995 0.04802,-0.2313076 0.278224,-0.3857038 0.50668,-0.3398226 0.240391,0.048282 0.402136,0.22625 0.417422,0.4593128 0.01,0.1500532 -0.02372,0.2439498 -0.12247,0.3427012 -0.134926,0.1349231 -0.334016,0.1671065 -0.512215,0.082803 z m 2.1726274,-1.94509 c -0.0769,-0.04876 -0.128558,-0.1358532 -0.128518,-0.2166084 3.3e-5,-0.05683 0.05237,-0.1846492 0.123727,-0.3020922 0.03045,-0.050119 0.06128,-0.1227861 0.0685,-0.1614733 0.0072,-0.038694 0.02357,-0.080785 0.03631,-0.093516 0.06168,-0.061682 0.208124,0.00754 0.265225,0.1256117 0.06652,0.1374237 0.05153,0.4118665 -0.03139,0.5744092 -0.06356,0.1246189 -0.204475,0.1557043 -0.333838,0.073649 z M 5.5443535,2.4767481 C 5.4962839,2.4572846 5.43571,2.3765527 5.4245458,2.3169918 5.3985943,2.1786358 5.4566028,1.9189792 5.5382882,1.8079008 5.6684585,1.6308906 5.9150523,1.6301059 5.866249,1.8068411 5.855269,1.8464051 5.859139,1.8970021 5.881805,2.0119212 5.929386,2.2533311 5.918439,2.3356547 5.827747,2.418161 5.756062,2.483369 5.6268007,2.510085 5.5443443,2.476732 Z M 9.1759626,2.0945209 C 8.9746916,1.9942192 8.9659706,1.8245452 9.1468466,1.5280756 c 0.02969,-0.048654 0.05786,-0.1125872 0.06263,-0.1420395 0.01696,-0.1052605 0.02985,-0.1208505 0.09985,-0.120739 0.07484,1.126e-4 0.133764,0.034467 0.182208,0.1062427 0.05989,0.088696 0.07329,0.1552467 0.06421,0.318642 -0.01284,0.2314382 -0.07614,0.3762809 -0.184047,0.4213753 -0.0706,0.029498 -0.109056,0.026164 -0.195732,-0.017021 z"
     id="path68" /></svg>
